<?xml version="1.0" encoding="UTF-8" standalone="no"?>
<!-- Created with Inkscape (http://www.inkscape.org/) -->

<svg
   width="210mm"
   height="297mm"
   viewBox="0 0 210 297"
   version="1.1"
   id="svg1"
   inkscape:version="1.3.2 (091e20e, 2023-11-25, custom)"
   sodipodi:docname="Figure 5.svg"
   xmlns:inkscape="http://www.inkscape.org/namespaces/inkscape"
   xmlns:sodipodi="http://sodipodi.sourceforge.net/DTD/sodipodi-0.dtd"
   xmlns="http://www.w3.org/2000/svg"
   xmlns:svg="http://www.w3.org/2000/svg">
  <sodipodi:namedview
     id="namedview1"
     pagecolor="#ffffff"
     bordercolor="#000000"
     borderopacity="0.25"
     inkscape:showpageshadow="2"
     inkscape:pageopacity="0.0"
     inkscape:pagecheckerboard="0"
     inkscape:deskcolor="#d1d1d1"
     inkscape:document-units="mm"
     inkscape:zoom="0.73890575"
     inkscape:cx="-110.29823"
     inkscape:cy="466.22996"
     inkscape:window-width="2560"
     inkscape:window-height="1369"
     inkscape:window-x="-8"
     inkscape:window-y="-8"
     inkscape:window-maximized="1"
     inkscape:current-layer="layer1" />
  <defs
     id="defs1">
    <clipPath
       clipPathUnits="userSpaceOnUse"
       id="clipPath2">
      <path
         d="M 0,51.97 H 491.33 V 543.3 H 0 Z"
         id="path2" />
    </clipPath>
    <clipPath
       clipPathUnits="userSpaceOnUse"
       id="clipPath4">
      <path
         d="M 0,51.97 H 491.33 V 543.3 H 0 Z"
         id="path4" />
    </clipPath>
    <clipPath
       clipPathUnits="userSpaceOnUse"
       id="clipPath6">
      <path
         d="M 0,51.97 H 491.33 V 543.3 H 0 Z"
         id="path6" />
    </clipPath>
    <clipPath
       clipPathUnits="userSpaceOnUse"
       id="clipPath8">
      <path
         d="M 0,51.97 H 491.33 V 543.3 H 0 Z"
         id="path8" />
    </clipPath>
    <clipPath
       clipPathUnits="userSpaceOnUse"
       id="clipPath10">
      <path
         d="M 0,51.97 H 491.33 V 543.3 H 0 Z"
         id="path10" />
    </clipPath>
    <clipPath
       clipPathUnits="userSpaceOnUse"
       id="clipPath12">
      <path
         d="M 0,51.97 H 491.33 V 543.3 H 0 Z"
         id="path12" />
    </clipPath>
    <clipPath
       clipPathUnits="userSpaceOnUse"
       id="clipPath14">
      <path
         d="M 0,51.97 H 491.33 V 543.3 H 0 Z"
         id="path14" />
    </clipPath>
    <clipPath
       clipPathUnits="userSpaceOnUse"
       id="clipPath2-6">
      <path
         d="M 79.83,0 H 675.11 V 595.28 H 79.83 Z"
         id="path2-7" />
    </clipPath>
    <clipPath
       clipPathUnits="userSpaceOnUse"
       id="clipPath4-3">
      <path
         d="M 79.83,0 H 675.11 V 595.28 H 79.83 Z"
         id="path4-0" />
    </clipPath>
    <clipPath
       clipPathUnits="userSpaceOnUse"
       id="clipPath6-8">
      <path
         d="M 79.83,0 H 675.11 V 595.28 H 79.83 Z"
         id="path6-9" />
    </clipPath>
  </defs>
  <g
     inkscape:label="Layer 1"
     inkscape:groupmode="layer"
     id="layer1">
    <path
       id="path1"
       d="m 136.88,224.62 -6.04,-4.06 -6.05,-4.06 -6.04,-4.05 -6.05,-4.06 -6.04,-4.06 -6.04,-4.05 -6.05,-4.06 -6.04,-4.06 -6.04,-4.05 3.82,-5.5 4.01,-5.36 4.19,-5.22 4.36,-5.07 4.54,-4.93 4.7,-4.76 4.86,-4.6 5.01,-4.44 5.17,-4.26 5.3,-4.08 5.44,-3.9 5.57,-3.72 5.69,-3.52 5.81,-3.32 5.92,-3.13 6.02,-2.92 6.12,-2.71 6.21,-2.51 6.29,-2.29 6.36,-2.08 6.43,-1.86 6.49,-1.64 6.54,-1.41 6.59,-1.2 6.62,-0.96 6.65,-0.75 6.68,-0.51 6.68,-0.29 6.7,-0.06 6.69,0.17 6.68,0.4 6.67,0.62 6.63,0.85 6.61,1.07 6.57,1.3 6.52,1.53 6.46,1.74 6.4,1.96 6.33,2.18 6.25,2.4 6.16,2.6 6.08,2.81 5.97,3.02 5.87,3.22 5.75,3.42 5.64,3.62 5.51,3.8 5.37,3.99 5.24,4.16 5.09,4.35 4.94,4.51 4.79,4.68 4.62,4.85 4.46,4.99 4.28,5.15 4.1,5.28 3.92,5.43 3.74,5.55 3.54,5.68 3.35,5.8 3.15,5.9 2.95,6.01 2.74,6.11 2.53,6.2 2.31,6.28 2.11,6.35 1.88,6.42 1.67,6.49 1.44,6.53 1.22,6.58 1,6.62 0.76,6.65 0.55,6.67 0.31,6.69 0.09,6.69 -0.14,6.7 -0.37,6.68 -0.6,6.67 -0.82,6.64 -1.05,6.61 -1.27,6.57 -1.5,6.52 -1.72,6.47 -1.93,6.41 -2.16,6.34 -2.37,6.26 -2.58,6.18 -2.79,6.08 -2.99,5.99 -3.2,5.88 -3.39,5.77 -3.59,5.65 -3.78,5.52 -3.97,5.39 -4.14,5.26 -4.33,5.11 -4.49,4.96 -4.67,4.8 -4.82,4.64 -4.98,4.48 -5.12,4.3 -5.27,4.12 -5.41,3.95 -5.54,3.76 -5.66,3.56 -5.79,3.38 -5.89,3.17 -6,2.97 -6.09,2.76 -6.19,2.56 -6.27,2.34 -6.35,2.13 -6.41,1.91 -6.48,1.69 -6.53,1.47 -6.58,1.25 -6.61,1.02 -6.65,0.8 -6.67,0.57 -6.68,0.34 -6.69,0.11 v -7.28 -7.28 -7.28 -7.28 -7.27 -7.28 -7.28 -7.28 -7.28 l 6.66,-0.17 6.65,-0.51 6.61,-0.84 6.56,-1.18 6.49,-1.52 6.41,-1.84 6.3,-2.16 6.19,-2.48 6.05,-2.8 5.9,-3.1 5.74,-3.39 5.55,-3.68 5.37,-3.96 5.15,-4.23 4.93,-4.48 4.7,-4.73 4.45,-4.96 4.2,-5.18 3.92,-5.39 3.65,-5.58 3.35,-5.76 3.06,-5.92 2.76,-6.07 2.44,-6.2 2.12,-6.32 1.8,-6.42 1.47,-6.5 1.14,-6.57 0.8,-6.62 0.47,-6.64 0.13,-6.67 -0.22,-6.66 -0.55,-6.64 -0.89,-6.61 -1.22,-6.55 -1.55,-6.48 -1.89,-6.4 -2.2,-6.29 -2.52,-6.17 -2.84,-6.03 -3.13,-5.88 -3.43,-5.72 -3.72,-5.53 -3.99,-5.34 -4.26,-5.13 -4.52,-4.9 -4.76,-4.67 -4.99,-4.42 -5.21,-4.16 -5.41,-3.88 -5.6,-3.61 -5.78,-3.32 -5.95,-3.02 -6.08,-2.72 -6.22,-2.4 -6.33,-2.09 -6.43,-1.75 -6.51,-1.43 -6.58,-1.1 -6.62,-0.76 -6.65,-0.42 -6.67,-0.08 -6.66,0.25 -6.64,0.6 -6.6,0.93 -6.54,1.26 -6.47,1.6 -6.39,1.92 -6.27,2.25 -6.15,2.56 -6.02,2.87 -5.86,3.18 -5.69,3.46 -5.51,3.76 -5.31,4.03 -5.1,4.29 -4.88,4.55 -4.63,4.78 -4.39,5.02 -4.13,5.24 z"
       style="fill:#f8766d icc-color(sRGB-IEC61966-2, 0.1, 0.97299194, 0.46299744, 0.42698669);fill-opacity:1;fill-rule:nonzero;stroke:none"
       transform="matrix(0.26903584,0,0,-0.26903584,10.367045,148.43828)"
       clip-path="url(#clipPath2)" />
    <path
       id="path3"
       d="m 132.2,232.13 -6.31,-3.64 -6.3,-3.64 -6.3,-3.64 -6.31,-3.64 -6.3,-3.64 -6.3,-3.64 -6.31,-3.64 -6.3,-3.64 -6.31,-3.64 7.03,-11.26 6.04,4.05 6.04,4.06 6.05,4.06 6.04,4.05 6.04,4.06 6.05,4.06 6.04,4.05 6.05,4.06 6.04,4.06 z"
       style="fill:#a58aff icc-color(sRGB-IEC61966-2, 0.1, 0.64698792, 0.54098511, 1);fill-opacity:1;fill-rule:nonzero;stroke:none"
       transform="matrix(0.26903584,0,0,-0.26903584,10.367045,148.43828)"
       clip-path="url(#clipPath4)" />
    <path
       id="path5"
       d="m 117.79,326.18 -7.1,1.58 -7.11,1.59 -7.1,1.58 -7.11,1.59 -7.1,1.58 -7.11,1.59 -7.1,1.58 -7.1,1.59 -7.11,1.59 -1.39,-6.82 -1.16,-6.86 -0.9,-6.89 -0.67,-6.92 -0.42,-6.95 -0.17,-6.95 0.07,-6.95 0.32,-6.95 0.56,-6.93 0.81,-6.91 1.06,-6.88 1.29,-6.83 1.54,-6.78 1.77,-6.73 2.02,-6.65 2.24,-6.58 2.48,-6.5 2.71,-6.41 2.93,-6.31 3.15,-6.2 3.37,-6.08 6.31,3.64 6.3,3.64 6.31,3.64 6.3,3.64 6.3,3.64 6.31,3.64 6.3,3.64 6.3,3.64 6.31,3.64 -3.32,6.11 -2.99,6.28 -2.64,6.43 -2.31,6.56 -1.95,6.68 -1.6,6.76 -1.23,6.85 -0.88,6.9 -0.5,6.93 -0.13,6.96 0.23,6.95 0.61,6.92 0.97,6.89 z"
       style="fill:#00b6eb icc-color(sRGB-IEC61966-2, 0.1, 0, 0.71398926, 0.92199707);fill-opacity:1;fill-rule:nonzero;stroke:none"
       transform="matrix(0.26903584,0,0,-0.26903584,10.367045,148.43828)"
       clip-path="url(#clipPath6)" />
    <path
       id="path7"
       d="m 139.41,374.29 -5.91,4.26 -5.9,4.26 -5.9,4.26 -5.91,4.26 -5.9,4.26 -5.9,4.25 -5.9,4.26 -5.91,4.26 -5.9,4.26 -4.13,-5.95 -3.91,-6.1 -3.67,-6.24 -3.45,-6.37 -3.21,-6.49 -2.97,-6.61 -2.72,-6.71 -2.47,-6.8 -2.23,-6.9 -1.96,-6.97 -1.71,-7.03 7.11,-1.59 7.1,-1.59 7.1,-1.58 7.11,-1.59 7.1,-1.58 7.11,-1.59 7.1,-1.58 7.11,-1.59 7.1,-1.58 1.87,7.35 2.28,7.23 2.71,7.09 3.11,6.92 3.5,6.73 3.89,6.51 z"
       style="fill:#53b400 icc-color(sRGB-IEC61966-2, 0.1, 0.32499695, 0.70599365, 0);fill-opacity:1;fill-rule:nonzero;stroke:none"
       transform="matrix(0.26903584,0,0,-0.26903584,10.367045,148.43828)"
       clip-path="url(#clipPath8)" />
    <path
       id="path9"
       d="m 150.7,387.91 -5.27,5.01 -5.28,5.02 -5.27,5.01 -5.28,5.02 -5.28,5.01 -5.27,5.02 -5.28,5.01 -5.27,5.02 -5.28,5.01 -5.95,-6.55 -5.65,-6.81 -5.34,-7.06 5.9,-4.26 5.91,-4.26 5.9,-4.26 5.9,-4.25 5.9,-4.26 5.91,-4.26 5.9,-4.26 5.9,-4.26 5.91,-4.26 5.42,7 z"
       style="fill:#c49a00 icc-color(sRGB-IEC61966-2, 0.1, 0.76899719, 0.60398865, 0);fill-opacity:1;fill-rule:nonzero;stroke:none"
       transform="matrix(0.26903584,0,0,-0.26903584,10.367045,148.43828)"
       clip-path="url(#clipPath10)" />
    <path
       id="path11"
       d="m 163.73,399.88 -4.55,5.68 -4.56,5.68 -4.55,5.68 -4.55,5.68 -4.55,5.68 -4.55,5.68 -4.56,5.68 -4.55,5.68 -4.55,5.68 -6.78,-5.69 -6.52,-5.99 -6.24,-6.28 5.28,-5.01 5.27,-5.02 5.28,-5.01 5.27,-5.02 5.28,-5.01 5.28,-5.02 5.27,-5.01 5.28,-5.02 5.27,-5.01 6.31,6.2 z"
       style="fill:#00c094 icc-color(sRGB-IEC61966-2, 0.1, 0, 0.75299072, 0.57998657);fill-opacity:1;fill-rule:nonzero;stroke:none"
       transform="matrix(0.26903584,0,0,-0.26903584,10.367045,148.43828)"
       clip-path="url(#clipPath12)" />
    <path
       id="path13"
       d="m 245.67,428.66 v 7.28 7.28 7.28 7.28 7.27 7.28 7.28 7.28 7.28 l -6.99,-0.12 -6.98,-0.38 -6.96,-0.62 -6.93,-0.86 -6.9,-1.12 -6.86,-1.36 -6.8,-1.6 -6.74,-1.84 -6.67,-2.08 -6.59,-2.31 -6.51,-2.55 -6.41,-2.78 -6.31,-3.01 -6.2,-3.22 -6.08,-3.45 -5.95,-3.66 -5.82,-3.87 -5.68,-4.07 -5.53,-4.27 4.55,-5.68 4.55,-5.68 4.56,-5.68 4.55,-5.68 4.55,-5.68 4.55,-5.68 4.55,-5.68 4.56,-5.68 4.55,-5.68 5.42,4.12 5.63,3.83 5.82,3.53 5.99,3.23 6.16,2.91 6.3,2.59 6.42,2.25 6.53,1.92 6.63,1.58 6.69,1.23 6.75,0.88 6.79,0.53 z"
       style="fill:#fb61d7 icc-color(sRGB-IEC61966-2, 0.1, 0.98399353, 0.37998962, 0.84298706);fill-opacity:1;fill-rule:nonzero;stroke:none"
       transform="matrix(0.26903584,0,0,-0.26903584,10.367045,148.43828)"
       clip-path="url(#clipPath14)" />
    <path
       id="path16"
       d="m 131.42654,51.60962 h 5.8263 v -5.82631 h -5.8263 z"
       style="fill:#f8766d icc-color(sRGB-IEC61966-2, 0.1, 0.97299194, 0.46299744, 0.42698669);fill-opacity:1;fill-rule:nonzero;stroke:none;stroke-width:0.367357" />
    <path
       id="path17"
       d="m 131.42654,58.539237 h 5.8263 v -5.826309 h -5.8263 z"
       style="fill:#c49a00 icc-color(sRGB-IEC61966-2, 0.1, 0.76899719, 0.60398865, 0);fill-opacity:1;fill-rule:nonzero;stroke:none;stroke-width:0.367357" />
    <path
       id="path18"
       d="m 131.48236,69.372923 h 5.8263 v -5.826311 h -5.8263 z"
       style="fill:#53b400 icc-color(sRGB-IEC61966-2, 0.1, 0.32499695, 0.70599365, 0);fill-opacity:1;fill-rule:nonzero;stroke:none;stroke-width:0.367357" />
    <path
       id="path19"
       d="m 131.49748,80.176368 h 5.79606 v -5.79607 h -5.79606 z"
       style="fill:#00c094 icc-color(sRGB-IEC61966-2, 0.1, 0, 0.75299072, 0.57998657);fill-opacity:1;fill-rule:nonzero;stroke:none;stroke-width:0.365451" />
    <path
       id="path20"
       d="m 131.53818,95.703998 h 5.71466 V 89.98933 h -5.71466 z"
       style="fill:#00b6eb icc-color(sRGB-IEC61966-2, 0.1, 0, 0.71398926, 0.92199707);fill-opacity:1;fill-rule:nonzero;stroke:none;stroke-width:0.360318" />
    <path
       id="path21"
       d="m 131.53818,102.63362 h 5.71466 v -5.714676 h -5.71466 z"
       style="fill:#a58aff icc-color(sRGB-IEC61966-2, 0.1, 0.64698792, 0.54098511, 1);fill-opacity:1;fill-rule:nonzero;stroke:none;stroke-width:0.360318" />
    <path
       id="path22"
       d="m 131.53818,109.56323 h 5.71466 v -5.71467 h -5.71466 z"
       style="fill:#fb61d7 icc-color(sRGB-IEC61966-2, 0.1, 0.98399353, 0.37998962, 0.84298706);fill-opacity:1;fill-rule:nonzero;stroke:none;stroke-width:0.360318" />
    <path
       id="path1-0"
       d="m 535.05,316.77 8.75,1.06 8.76,1.07 8.75,1.06 8.76,1.06 8.75,1.07 8.76,1.06 8.75,1.06 8.76,1.07 8.75,1.06 -1.13,8.14 -1.41,8.1 -1.69,8.04 -1.97,7.98 -2.24,7.91 -2.51,7.83 -2.79,7.73 -3.04,7.64 -3.31,7.52 -3.57,7.41 -3.82,7.28 -4.07,7.14 -4.31,7 -4.55,6.84 -4.79,6.68 -5.01,6.52 -5.24,6.33 -5.45,6.16 -5.66,5.96 -5.86,5.76 -6.06,5.56 -6.24,5.34 -6.43,5.12 -6.6,4.9 -6.76,4.67 -6.93,4.44 -7.07,4.19 -7.21,3.94 -7.34,3.7 -7.47,3.44 -7.58,3.17 -7.68,2.92 -7.79,2.65 -7.86,2.37 -7.95,2.11 -8.01,1.83 -8.08,1.55 -8.12,1.27 -8.16,0.99 -8.19,0.71 -8.2,0.43 -8.22,0.14 v -8.82 -8.82 -8.82 -8.82 -8.82 -8.82 -8.81 -8.82 -8.82 l 8.21,-0.21 8.2,-0.64 8.15,-1.06 8.08,-1.49 8,-1.89 7.89,-2.31 7.76,-2.72 7.6,-3.11 7.44,-3.5 7.24,-3.88 7.04,-4.26 6.8,-4.61 6.56,-4.95 6.29,-5.29 6.01,-5.61 5.71,-5.91 5.4,-6.2 5.07,-6.47 4.72,-6.73 4.38,-6.96 4,-7.17 3.63,-7.38 3.25,-7.55 2.85,-7.71 2.44,-7.85 2.04,-7.96 1.62,-8.06 z"
       style="fill:#619cff icc-color(sRGB-IEC61966-2, 0.1, 0.37998962, 0.61199951, 1);fill-opacity:1;fill-rule:nonzero;stroke:none"
       transform="matrix(0.22129143,0,0,-0.22129143,-7.7729079,258.29723)"
       clip-path="url(#clipPath2-6)" />
    <path
       id="path3-2"
       d="m 250.02,203.01 -7.08,-5.26 -7.08,-5.26 -7.08,-5.25 -7.09,-5.26 -7.08,-5.26 -7.08,-5.26 -7.08,-5.25 -7.08,-5.26 -7.08,-5.26 4.95,-6.43 5.16,-6.26 5.37,-6.08 5.58,-5.89 5.78,-5.7 5.96,-5.49 6.15,-5.3 6.33,-5.08 6.49,-4.86 6.66,-4.64 6.81,-4.4 6.96,-4.18 7.09,-3.93 7.23,-3.69 7.35,-3.44 7.46,-3.19 7.56,-2.93 7.66,-2.68 7.75,-2.41 7.82,-2.14 7.9,-1.88 7.95,-1.61 8,-1.34 8.04,-1.06 8.08,-0.79 8.09,-0.51 8.11,-0.23 8.12,0.04 8.1,0.31 8.1,0.59 8.06,0.87 8.04,1.14 7.98,1.42 7.94,1.68 7.87,1.96 7.81,2.22 7.72,2.49 7.63,2.75 7.54,3.01 7.43,3.26 7.31,3.51 7.19,3.76 7.05,4.01 6.92,4.24 6.77,4.47 6.61,4.71 6.45,4.92 6.27,5.14 6.1,5.36 5.91,5.55 5.72,5.76 5.52,5.95 5.31,6.13 5.1,6.31 4.88,6.48 4.66,6.64 4.43,6.79 4.2,6.95 3.96,7.08 3.71,7.21 3.47,7.34 3.21,7.45 2.96,7.55 2.7,7.65 2.44,7.74 2.17,7.82 1.9,7.88 1.64,7.95 1.36,8 1.09,8.04 0.82,8.07 0.54,8.1 0.26,8.1 -0.01,8.12 -0.29,8.11 -0.57,8.09 -0.84,8.07 -8.75,-1.06 -8.76,-1.07 -8.75,-1.06 -8.76,-1.06 -8.75,-1.07 -8.76,-1.06 -8.75,-1.06 -8.76,-1.07 -8.75,-1.06 0.78,-8.13 0.35,-8.15 -0.06,-8.17 -0.49,-8.15 -0.9,-8.12 -1.32,-8.06 -1.73,-7.98 -2.13,-7.88 -2.55,-7.76 -2.93,-7.62 -3.33,-7.45 -3.7,-7.28 -4.07,-7.08 -4.44,-6.86 -4.78,-6.62 -5.11,-6.37 -5.43,-6.09 -5.74,-5.81 -6.03,-5.5 -6.31,-5.19 -6.56,-4.86 -6.81,-4.51 -7.03,-4.16 -7.23,-3.79 -7.42,-3.41 -7.58,-3.03 -7.73,-2.63 -7.86,-2.23 -7.95,-1.83 -8.05,-1.41 -8.1,-1 -8.15,-0.58 -8.16,-0.16 -8.16,0.26 -8.14,0.68 -8.09,1.1 -8.03,1.51 -7.93,1.92 -7.83,2.33 -7.7,2.72 -7.54,3.12 -7.38,3.51 -7.18,3.87 -6.98,4.25 -6.75,4.59 -6.51,4.94 -6.24,5.26 -5.96,5.58 -5.67,5.88 -5.36,6.16 z"
       style="fill:#f8766d icc-color(sRGB-IEC61966-2, 0.1, 0.97299194, 0.46299744, 0.42698669);fill-opacity:1;fill-rule:nonzero;stroke:none"
       transform="matrix(0.22129143,0,0,-0.22129143,-7.7729079,258.29723)"
       clip-path="url(#clipPath4-3)" />
    <path
       id="path5-8"
       d="m 377.47,456.38 v 8.82 8.82 8.81 8.82 8.82 8.82 8.82 8.82 8.82 l -8.1,-0.14 -8.08,-0.41 -8.06,-0.69 -8.04,-0.96 -8,-1.23 -7.95,-1.51 -7.9,-1.77 -7.83,-2.04 -7.76,-2.31 -7.67,-2.57 -7.58,-2.82 -7.49,-3.09 -7.37,-3.33 -7.26,-3.59 -7.13,-3.83 -6.99,-4.07 -6.86,-4.3 -6.7,-4.54 -6.55,-4.76 -6.37,-4.98 -6.21,-5.19 -6.03,-5.41 -5.84,-5.6 -5.64,-5.8 -5.45,-5.99 -5.24,-6.17 -5.02,-6.34 -4.81,-6.51 -4.58,-6.67 -4.36,-6.82 -4.12,-6.97 -3.88,-7.1 -3.64,-7.23 -3.38,-7.35 -3.14,-7.46 -2.88,-7.57 -2.63,-7.65 -2.36,-7.74 -2.1,-7.82 -1.83,-7.88 -1.56,-7.95 -1.29,-7.99 -1.02,-8.03 -0.74,-8.05 -0.47,-8.08 -0.2,-8.09 0.08,-8.1 0.36,-8.08 0.63,-8.07 0.9,-8.05 1.17,-8 1.45,-7.97 1.72,-7.91 1.98,-7.84 2.25,-7.78 2.52,-7.69 2.77,-7.6 3.03,-7.51 3.28,-7.39 3.54,-7.29 3.78,-7.15 4.01,-7.03 4.26,-6.88 4.49,-6.74 4.71,-6.58 7.08,5.26 7.08,5.26 7.08,5.25 7.08,5.26 7.08,5.26 7.09,5.26 7.08,5.25 7.08,5.26 7.08,5.26 -4.7,6.67 -4.34,6.9 -3.98,7.12 -3.61,7.31 -3.24,7.49 -2.84,7.64 -2.45,7.78 -2.04,7.9 -1.63,7.99 -1.23,8.06 -0.81,8.12 -0.38,8.14 0.03,8.16 0.44,8.14 0.87,8.11 1.28,8.06 1.69,7.97 2.1,7.88 2.51,7.77 2.9,7.62 3.28,7.46 3.67,7.29 4.03,7.09 4.39,6.87 4.74,6.64 5.08,6.38 5.39,6.12 5.71,5.83 5.99,5.53 6.27,5.21 6.53,4.89 6.78,4.54 6.99,4.19 7.21,3.82 7.39,3.45 7.55,3.07 7.71,2.67 7.83,2.28 7.94,1.87 8.02,1.46 8.09,1.04 8.13,0.63 z"
       style="fill:#00ba38 icc-color(sRGB-IEC61966-2, 0.1, 0, 0.72898865, 0.21998596);fill-opacity:1;fill-rule:nonzero;stroke:none"
       transform="matrix(0.22129143,0,0,-0.22129143,-7.7729079,258.29723)"
       clip-path="url(#clipPath6-8)" />
    <path
       id="path8-2"
       d="m 133.71609,199.3902 h 5.71467 v -5.71467 h -5.71467 z"
       style="fill:#f8766d icc-color(sRGB-IEC61966-2, 0.1, 0.97299194, 0.46299744, 0.42698669);fill-opacity:1;fill-rule:nonzero;stroke:none;stroke-width:0.360319" />
    <path
       id="path9-9"
       d="m 133.71609,206.69073 h 5.71467 v -5.71466 h -5.71467 z"
       style="fill:#00ba38 icc-color(sRGB-IEC61966-2, 0.1, 0, 0.72898865, 0.21998596);fill-opacity:1;fill-rule:nonzero;stroke:none;stroke-width:0.360319" />
    <path
       id="path10-7"
       d="m 133.71609,191.79564 h 5.71467 v -5.71466 h -5.71467 z"
       style="fill:#619cff icc-color(sRGB-IEC61966-2, 0.1, 0.37998962, 0.61199951, 1);fill-opacity:1;fill-rule:nonzero;stroke:none;stroke-width:0.360319" />
    <text
       xml:space="preserve"
       style="font-size:4.23333px;font-family:Arial;-inkscape-font-specification:Arial;white-space:pre;inline-size:0;fill:#000080;stroke-width:0.262092"
       x="116.93754"
       y="171.7169"
       id="text13"
       transform="translate(16.829503,9.6680124)"><tspan
         id="tspan13"
         x="116.93754"
         y="171.7169"
         style="font-size:4.23333px;fill:#000000;stroke-width:0.262092">Protected Area</tspan></text>
    <text
       xml:space="preserve"
       style="font-size:4.23333px;font-family:Arial;-inkscape-font-specification:Arial;white-space:pre;inline-size:0;fill:#000080;stroke-width:0.262092"
       x="116.93754"
       y="171.7169"
       id="text13-4"
       transform="translate(25.668055,18.711756)"><tspan
         id="tspan13-3"
         x="116.93754"
         y="171.7169"
         style="font-size:4.23333px;fill:#000000;stroke-width:0.262092">Yes</tspan></text>
    <text
       xml:space="preserve"
       style="font-size:4.23333px;font-family:Arial;-inkscape-font-specification:Arial;white-space:pre;inline-size:0;fill:#000080;stroke-width:0.262092"
       x="116.93754"
       y="171.7169"
       id="text13-4-0"
       transform="translate(25.668055,26.30631)"><tspan
         id="tspan13-3-4"
         x="116.93754"
         y="171.7169"
         style="font-size:4.23333px;fill:#000000;stroke-width:0.262092">No</tspan></text>
    <text
       xml:space="preserve"
       style="font-size:4.23333px;font-family:Arial;-inkscape-font-specification:Arial;fill:#000000;stroke-width:0.264583"
       x="139.85001"
       y="50.211617"
       id="text1"><tspan
         sodipodi:role="line"
         id="tspan1"
         style="stroke-width:0.264583"
         x="139.85001"
         y="50.211617">Close/Territorial Sea</tspan></text>
    <text
       xml:space="preserve"
       style="font-size:4.23333px;font-family:Arial;-inkscape-font-specification:Arial;fill:#000000;stroke-width:0.264583"
       x="131.49153"
       y="43.040821"
       id="text1-9"><tspan
         sodipodi:role="line"
         id="tspan1-7"
         style="stroke-width:0.264583"
         x="131.49153"
         y="43.040821">Proximity to Governing Body</tspan></text>
    <text
       xml:space="preserve"
       style="font-size:4.23333px;font-family:Arial;-inkscape-font-specification:Arial;fill:#000000;stroke-width:0.264583"
       x="139.76048"
       y="55.794907"
       id="text1-7"><tspan
         sodipodi:role="line"
         style="stroke-width:0.264583"
         x="139.76048"
         y="55.794907"
         id="tspan3">Close/Territorial Sea and</tspan><tspan
         sodipodi:role="line"
         style="stroke-width:0.264583"
         x="139.76048"
         y="61.086567"
         id="tspan4">Far/Exclusive Econmic Zone</tspan></text>
    <text
       xml:space="preserve"
       style="font-size:4.23333px;font-family:Arial;-inkscape-font-specification:Arial;fill:#000000;stroke-width:0.264583"
       x="139.23618"
       y="66.669861"
       id="text1-7-0"><tspan
         sodipodi:role="line"
         style="stroke-width:0.264583"
         x="139.23618"
         y="66.669861"
         id="tspan3-2">Close/Territorial Sea and</tspan><tspan
         sodipodi:role="line"
         style="stroke-width:0.264583"
         x="139.23618"
         y="71.961525"
         id="tspan4-9">Middle/Contiguous Zone</tspan></text>
    <text
       xml:space="preserve"
       style="font-size:4.23333px;font-family:Arial;-inkscape-font-specification:Arial;fill:#000000;stroke-width:0.264583"
       x="139.2455"
       y="77.595718"
       id="text1-7-09"><tspan
         sodipodi:role="line"
         style="stroke-width:0.264583"
         x="139.2455"
         y="77.595718"
         id="tspan3-8">Close/Territorial Sea</tspan><tspan
         sodipodi:role="line"
         style="stroke-width:0.264583"
         x="139.2455"
         y="82.887383"
         id="tspan5">Middle/Contiguous Zone and</tspan><tspan
         sodipodi:role="line"
         style="stroke-width:0.264583"
         x="139.2455"
         y="88.179047"
         id="tspan4-4">Far/Exclusive Econmic Zone</tspan></text>
    <text
       xml:space="preserve"
       style="font-size:4.23333px;font-family:Arial;-inkscape-font-specification:Arial;fill:#000000;stroke-width:0.264583"
       x="139.14214"
       y="101.14945"
       id="text1-7-9"><tspan
         sodipodi:role="line"
         style="stroke-width:0.264583"
         x="139.14214"
         y="101.14945"
         id="tspan4-8">Middle/Contiguous Zone</tspan></text>
    <text
       xml:space="preserve"
       style="font-size:4.23333px;font-family:Arial;-inkscape-font-specification:Arial;fill:#000000;stroke-width:0.264583"
       x="139.10905"
       y="94.020355"
       id="text1-7-95"><tspan
         sodipodi:role="line"
         style="stroke-width:0.264583"
         x="139.10905"
         y="94.020355"
         id="tspan4-7">Far/Exclusive Econmic Zone</tspan></text>
    <text
       xml:space="preserve"
       style="font-size:4.23333px;font-family:Arial;-inkscape-font-specification:Arial;fill:#000000;stroke-width:0.264583"
       x="139.13387"
       y="107.82624"
       id="text1-7-06"><tspan
         sodipodi:role="line"
         style="stroke-width:0.264583"
         x="139.13387"
         y="107.82624"
         id="tspan4-1">Not Specified</tspan></text>
    <text
       xml:space="preserve"
       style="font-size:4.23333px;font-family:Arial;-inkscape-font-specification:Arial;fill:#000000;stroke-width:0.264583"
       x="142.60559"
       y="205.26624"
       id="text6"><tspan
         sodipodi:role="line"
         id="tspan6"
         style="stroke-width:0.264583"
         x="142.60559"
         y="205.26624">Not Mentioned</tspan></text>
    <text
       xml:space="preserve"
       style="font-size:4.23333px;font-family:Arial;-inkscape-font-specification:Arial;white-space:pre;inline-size:0;fill:#000080;stroke-width:0.262092"
       x="116.93754"
       y="171.7169"
       id="text13-4-5"
       transform="translate(-98.848892,-153.14608)"><tspan
         id="tspan13-3-7"
         x="116.93754"
         y="171.7169"
         style="font-size:4.23333px;fill:#000000;stroke-width:0.262092">(a)</tspan></text>
    <text
       xml:space="preserve"
       style="font-size:4.23333px;font-family:Arial;-inkscape-font-specification:Arial;white-space:pre;inline-size:0;fill:#000080;stroke-width:0.262092"
       x="116.93754"
       y="171.7169"
       id="text13-4-5-5"
       transform="translate(-98.89215,-32.867458)"><tspan
         id="tspan13-3-7-1"
         x="116.93754"
         y="171.7169"
         style="font-size:4.23333px;fill:#000000;stroke-width:0.262092">(b)</tspan></text>
  </g>
</svg>
