<?xml version="1.0" encoding="UTF-8"?>
<svg id="Layer_1" data-name="Layer 1" xmlns="http://www.w3.org/2000/svg" viewBox="0 0 536.14 600">
  <defs>
    <style>
      .cls-1 {
        font-family: Arial-ItalicMT, Arial;
        font-style: italic;
      }

      .cls-1, .cls-2, .cls-3 {
        isolation: isolate;
      }

      .cls-1, .cls-3 {
        fill: #000;
        font-size: 10px;
      }

      .cls-4 {
        fill: #f5a623;
      }

      .cls-4, .cls-5 {
        stroke-width: 0px;
      }

      .cls-3 {
        font-family: ArialMT, Arial;
      }

      .cls-5 {
        fill: #fff;
      }

      .cls-6 {
        fill: none;
        stroke: #ccc;
      }

      .cls-7 {
        letter-spacing: -.04em;
      }
    </style>
  </defs>
  <rect id="background" class="cls-5" x="-138.26" width="805" height="600"/>
  <g id="links">
    <path class="cls-6" d="M264.24,300c-35.46,31.61,46.55,9.44,93.1,18.88"/>
    <path class="cls-6" d="M264.24,300c-35.46,31.61-32.24,34.88-64.48,69.76"/>
    <path class="cls-6" d="M264.24,300c-35.46,31.61-45.15,14.76-90.3,29.51"/>
    <path class="cls-6" d="M264.24,300c-35.46,31.61-47.49,1.08-94.98,2.17"/>
    <path class="cls-6" d="M264.24,300c-35.46,31.61-46.62-9.12-93.23-18.24"/>
    <path class="cls-6" d="M264.24,300c-35.46,31.61-44.79-15.81-89.58-31.62"/>
    <path class="cls-6" d="M264.24,300c-35.46,31.61-42.02-22.16-84.03-44.32"/>
    <path class="cls-6" d="M264.24,300c-35.46,31.61-38.34-28.04-76.69-56.07"/>
    <path class="cls-6" d="M264.24,300c-35.46,31.61-33.92-33.25-67.85-66.5"/>
    <path class="cls-6" d="M264.24,300c-35.46,31.61-28.88-37.71-57.75-75.43"/>
    <path class="cls-6" d="M264.24,300c-35.46,31.61-23.25-41.42-46.5-82.84"/>
    <path class="cls-6" d="M264.24,300c-35.46,31.61-17.15-44.3-34.3-88.59"/>
    <path class="cls-6" d="M264.24,300c-35.46,31.61-10.71-46.28-21.42-92.55"/>
    <path class="cls-6" d="M264.24,300c-35.46,31.61-4.05-47.33-8.11-94.65"/>
    <path class="cls-6" d="M357.34,318.88c46.55,9.44-80.94-160.86-76.89-208.19"/>
    <path class="cls-6" d="M357.34,318.88c46.55,9.44-53.01-155.63-39.65-201.21"/>
    <path class="cls-6" d="M357.34,318.88c46.55,9.44-27.68-145.48-5.87-187.67"/>
    <path class="cls-6" d="M357.34,318.88c46.55,9.44-6.03-131.69,22.99-169.29"/>
    <path class="cls-6" d="M357.34,318.88c46.55,9.44,12.25-114.84,47.36-146.82"/>
    <path class="cls-6" d="M357.34,318.88c46.55,9.44,26.85-95.81,66.83-121.45"/>
    <path class="cls-6" d="M357.34,318.88c46.55,9.44,37.79-75.22,81.42-94"/>
    <path class="cls-6" d="M357.34,318.88c46.55,9.44,45.17-53.33,91.26-64.81"/>
    <path class="cls-6" d="M357.34,318.88c46.55,9.44,48.9-30.77,96.23-34.73"/>
    <path class="cls-6" d="M357.34,318.88c46.55,9.44,48.99-8.14,96.36-4.56"/>
    <path class="cls-6" d="M357.34,318.88c46.55,9.44,45.56,13.95,91.78,24.9"/>
    <path class="cls-6" d="M357.34,318.88c46.55,9.44,38.82,34.98,82.8,52.93"/>
    <path class="cls-6" d="M357.34,318.88c46.55,9.44,29,54.58,69.7,79.07"/>
    <path class="cls-6" d="M357.34,318.88c46.55,9.44,16.39,72.32,52.88,102.72"/>
    <path class="cls-6" d="M357.34,318.88c46.55,9.44,1.34,87.82,32.82,123.39"/>
    <path class="cls-6" d="M357.34,318.88c46.55,9.44-15.87,100.87,9.87,140.79"/>
    <path class="cls-6" d="M357.34,318.88c46.55,9.44-34.87,111.17-15.45,154.52"/>
    <path class="cls-6" d="M357.34,318.88c46.55,9.44-55.19,118.48-42.56,164.27"/>
    <path class="cls-6" d="M357.34,318.88c46.55,9.44-76.21,122.61-70.58,169.78"/>
    <path class="cls-6" d="M357.34,318.88c46.55,9.44-97.2,123.56-98.56,171.04"/>
    <path class="cls-6" d="M357.34,318.88c46.55,9.44-117.6,121.5-125.77,168.29"/>
    <path class="cls-6" d="M357.34,318.88c46.55,9.44-137.22,116.62-151.93,161.78"/>
    <path class="cls-6" d="M199.75,369.76c-32.24,34.88,1.18,57.9-19.92,100.46"/>
    <path class="cls-6" d="M199.75,369.76c-32.24,34.88-16.67,47.37-43.72,86.42"/>
    <path class="cls-6" d="M199.75,369.76c-32.24,34.88-32.43,34.71-64.73,69.53"/>
    <path class="cls-6" d="M199.75,369.76c-32.24,34.88-46.24,19.94-83.15,49.84"/>
    <path class="cls-6" d="M199.75,369.76c-32.24,34.88-57.82,3.37-98.59,27.75"/>
    <path class="cls-6" d="M173.94,329.51c-45.15,14.76-41.45,24.78-85.37,42.88"/>
    <path class="cls-6" d="M173.94,329.51c-45.15,14.76-48.09,4.48-94.22,15.81"/>
    <path class="cls-6" d="M169.26,302.17c-47.49,1.08-46.88,11.32-94.17,15.82"/>
    <path class="cls-6" d="M169.26,302.17c-47.49,1.08-47.35-9.18-94.79-11.51"/>
    <path class="cls-6" d="M171,281.76q-46.62-9.12-93.23-18.24"/>
    <path class="cls-6" d="M174.65,268.38q-44.79-15.81-89.58-31.62"/>
    <path class="cls-6" d="M180.21,255.68q-42.02-22.16-84.03-44.32"/>
    <path class="cls-6" d="M187.55,243.93q-38.34-28.04-76.69-56.07"/>
    <path class="cls-6" d="M196.39,233.5q-33.92-33.25-67.85-66.5"/>
    <path class="cls-6" d="M206.48,224.57q-28.88-37.71-57.75-75.43"/>
    <path class="cls-6" d="M217.74,217.16q-23.25-41.42-46.5-82.84"/>
    <path class="cls-6" d="M229.93,211.41q-17.15-44.3-34.3-88.59"/>
    <path class="cls-6" d="M242.82,207.45q-10.71-46.28-21.42-92.55"/>
    <path class="cls-6" d="M256.13,205.35q-4.05-47.33-8.11-94.65"/>
  </g>
  <g>
    <circle class="cls-4" cx="264.24" cy="300" r="24.41"/>
    <circle class="cls-4" cx="357.34" cy="318.88" r="22.82"/>
    <circle class="cls-4" cx="199.75" cy="369.76" r="3.82"/>
    <circle class="cls-4" cx="173.94" cy="329.51" r="3.82"/>
    <circle class="cls-4" cx="169.26" cy="302.17" r="2.5"/>
    <circle class="cls-4" cx="171" cy="281.76" r="2.04"/>
    <circle class="cls-4" cx="174.65" cy="268.38" r="2.04"/>
    <circle class="cls-4" cx="180.21" cy="255.68" r="2.04"/>
    <circle class="cls-4" cx="187.55" cy="243.93" r="2.04"/>
    <circle class="cls-4" cx="196.39" cy="233.5" r="1.44"/>
    <circle class="cls-4" cx="206.48" cy="224.57" r="1.44"/>
    <circle class="cls-4" cx="217.74" cy="217.16" r="1.44"/>
    <circle class="cls-4" cx="229.93" cy="211.41" r="1.44"/>
    <circle class="cls-4" cx="242.82" cy="207.45" r="1.44"/>
    <circle class="cls-4" cx="256.13" cy="205.35" r="1.44"/>
    <circle class="cls-4" cx="280.45" cy="110.69" r="10"/>
    <circle class="cls-4" cx="317.7" cy="117.68" r="10"/>
    <circle class="cls-4" cx="351.47" cy="131.21" r="7.64"/>
    <circle class="cls-4" cx="380.33" cy="149.6" r="6.61"/>
    <circle class="cls-4" cx="404.71" cy="172.06" r="5.95"/>
    <circle class="cls-4" cx="424.17" cy="197.43" r="4.79"/>
    <circle class="cls-4" cx="438.76" cy="224.89" r="4.56"/>
    <circle class="cls-4" cx="448.6" cy="254.07" r="4.33"/>
    <circle class="cls-4" cx="453.57" cy="284.15" r="4.08"/>
    <circle class="cls-4" cx="453.7" cy="314.32" r="3.82"/>
    <circle class="cls-4" cx="449.12" cy="343.78" r="3.54"/>
    <circle class="cls-4" cx="440.14" cy="371.81" r="3.23"/>
    <circle class="cls-4" cx="427.04" cy="397.95" r="3.23"/>
    <circle class="cls-4" cx="410.22" cy="421.61" r="2.89"/>
    <circle class="cls-4" cx="390.16" cy="442.28" r="2.89"/>
    <circle class="cls-4" cx="367.21" cy="459.68" r="2.89"/>
    <circle class="cls-4" cx="341.89" cy="473.41" r="2.89"/>
    <circle class="cls-4" cx="314.78" cy="483.15" r="2.89"/>
    <circle class="cls-4" cx="286.76" cy="488.66" r="2.5"/>
    <circle class="cls-4" cx="258.78" cy="489.92" r="2.04"/>
    <circle class="cls-4" cx="231.58" cy="487.17" r="1.44"/>
    <circle class="cls-4" cx="205.41" cy="480.67" r="1.44"/>
    <circle class="cls-4" cx="179.83" cy="470.22" r="2.5"/>
    <circle class="cls-4" cx="156.03" cy="456.18" r="1.44"/>
    <circle class="cls-4" cx="135.02" cy="439.29" r="1.44"/>
    <circle class="cls-4" cx="116.61" cy="419.6" r="1.44"/>
    <circle class="cls-4" cx="101.17" cy="397.51" r="1.44"/>
    <circle class="cls-4" cx="88.57" cy="372.39" r="3.23"/>
    <circle class="cls-4" cx="79.72" cy="345.32" r="2.04"/>
    <circle class="cls-4" cx="75.09" cy="317.99" r="2.04"/>
    <circle class="cls-4" cx="74.47" cy="290.65" r="1.44"/>
    <circle class="cls-4" cx="77.77" cy="263.51" r="2.04"/>
    <circle class="cls-4" cx="85.07" cy="236.77" r="2.04"/>
    <circle class="cls-4" cx="96.18" cy="211.37" r="2.04"/>
    <circle class="cls-4" cx="110.86" cy="187.86" r="2.04"/>
    <circle class="cls-4" cx="128.54" cy="167.01" r="1.44"/>
    <circle class="cls-4" cx="148.73" cy="149.14" r="1.44"/>
    <circle class="cls-4" cx="171.24" cy="134.31" r="1.44"/>
    <circle class="cls-4" cx="195.63" cy="122.82" r="1.44"/>
    <circle class="cls-4" cx="221.39" cy="114.89" r="1.44"/>
    <circle class="cls-4" cx="248.02" cy="110.69" r="1.44"/>
  </g>
  <g class="cls-2">
    <text class="cls-3" transform="translate(330.89 315.95) rotate(11.46)"><tspan x="0" y="0">Scleractinia</tspan></text>
  </g>
  <g class="cls-2">
    <text class="cls-3" transform="translate(182.33 375.04) rotate(-47.25)"><tspan x="0" y="0">Alcyonacea</tspan></text>
  </g>
  <g class="cls-2">
    <text class="cls-3" transform="translate(149.87 329.51) rotate(-18.1)"><tspan x="0" y="0">Zoantharia</tspan></text>
  </g>
  <g class="cls-2">
    <text class="cls-3" transform="translate(149.87 297.41) rotate(-1.31)"><tspan x="0" y="0">Actiniaria</tspan></text>
  </g>
  <g class="cls-2">
    <text class="cls-3" transform="translate(129.86 270.98) rotate(11.07)"><tspan x="0" y="0">Axinellida</tspan></text>
  </g>
  <g class="cls-2">
    <text class="cls-3" transform="translate(129.86 249.74) rotate(19.44)"><tspan x="0" y="0">Suessiales</tspan></text>
  </g>
  <g class="cls-2">
    <text class="cls-3" transform="translate(136.46 229.45) rotate(27.81)"><tspan x="0" y="0">Laminariales</tspan></text>
  </g>
  <g class="cls-2">
    <text class="cls-3" transform="translate(147.29 209.33) rotate(36.17)"><tspan x="0" y="0">Anthoathecata</tspan></text>
  </g>
  <g class="cls-2">
    <text class="cls-3" transform="translate(166.76 200.25) rotate(44.42)"><tspan x="0" y="0">Agelasida</tspan></text>
  </g>
  <g class="cls-2">
    <text class="cls-3" transform="translate(176.69 178.01) rotate(52.56)"><tspan x="0" y="0">Poecilosclerida</tspan></text>
  </g>
  <g class="cls-2">
    <text class="cls-3" transform="translate(194.19 165.56) rotate(60.7)"><tspan x="0" y="0">Aplousobranchia</tspan></text>
  </g>
  <g class="cls-2">
    <text class="cls-3" transform="translate(214.02 161.17) rotate(68.83)"><tspan x="0" y="0">Dictyoceratida</tspan></text>
  </g>
  <g class="cls-2">
    <text class="cls-3" transform="translate(235.36 150.58) rotate(78.62)"><tspan x="0" y="0">Haplosclerida</tspan></text>
  </g>
  <g class="cls-2">
    <text class="cls-3" transform="translate(256.13 147.7) rotate(86.75)"><tspan x="0" y="0">Pennatulacea</tspan></text>
  </g>
  <g class="cls-2">
    <text class="cls-1" transform="translate(276.25 95.28) rotate(-85.1)"><tspan x="0" y="0">Acroporidae</tspan></text>
  </g>
  <g class="cls-2">
    <text class="cls-1" transform="translate(323.97 101.73) rotate(-73.66)"><tspan x="0" y="0">Merulinidae</tspan></text>
  </g>
  <g class="cls-2">
    <text class="cls-1" transform="translate(360.18 121.38) rotate(-62.67)"><tspan x="0" y="0">Pocilloporidae</tspan></text>
  </g>
  <g class="cls-2">
    <text class="cls-1" transform="translate(390.16 142.98) rotate(-52.34)"><tspan x="0" y="0">Poritidae</tspan></text>
  </g>
  <g class="cls-2">
    <text class="cls-1" transform="translate(413.11 165.56) rotate(-42.33)"><tspan x="0" y="0">Dendrophylliidae</tspan></text>
  </g>
  <g class="cls-2">
    <text class="cls-1" transform="translate(434.19 189.9) rotate(-32.67)"><tspan x="0" y="0">Agariciidae</tspan></text>
  </g>
  <g class="cls-2">
    <text class="cls-1" transform="translate(448.6 220.32) rotate(-23.29)"><tspan x="0" y="0">Lobophylliidae</tspan></text>
  </g>
  <g class="cls-2">
    <text class="cls-1" transform="translate(462.17 252.58) rotate(-13.99)"><tspan x="0" y="0">Faviidae</tspan></text>
  </g>
  <g class="cls-2">
    <text class="cls-1" transform="translate(467.27 286.96) rotate(-4.78)"><tspan x="0" y="0">Euphylliidae</tspan></text>
  </g>
  <g class="cls-2">
    <text class="cls-1" transform="translate(467.27 318.14) rotate(4.32)"><tspan x="0" y="0">incertae sedis</tspan></text>
  </g>
  <g class="cls-2">
    <text class="cls-1" transform="translate(458.7 350.95) rotate(13.32)"><tspan x="0" y="0">Rhizangiidae</tspan></text>
  </g>
  <g class="cls-2">
    <text class="cls-1" transform="translate(452.93 380.58) rotate(22.21)"><tspan x="0" y="0">Fungiidae</tspan></text>
  </g>
  <g class="cls-2">
    <text class="cls-1" transform="translate(434.19 408.88) rotate(31.03)"><tspan x="0" y="0">Plesiastreidae</tspan></text>
  </g>
  <g class="cls-2">
    <text class="cls-1" transform="translate(419.38 431.83) rotate(39.79)"><tspan x="0" y="0">Coscinaraeidae</tspan></text>
  </g>
  <g class="cls-2">
    <text class="cls-1" transform="translate(398.74 454.73) rotate(48.49)"><tspan x="0" y="0">Mussidae</tspan></text>
  </g>
  <g class="cls-2">
    <text class="cls-1" transform="translate(375.15 472.72) rotate(57.18)"><tspan x="0" y="0">Oculinidae</tspan></text>
  </g>
  <g class="cls-2">
    <text class="cls-1" transform="translate(344.78 487.88) rotate(65.88)"><tspan x="0" y="0">Oulastreidae</tspan></text>
  </g>
  <g class="cls-2">
    <text class="cls-1" transform="translate(317.7 495.46) rotate(74.57)"><tspan x="0" y="0">Psammocoridae</tspan></text>
  </g>
  <g class="cls-2">
    <text class="cls-1" transform="translate(288.65 502.05) rotate(83.19)"><tspan x="0" y="0">Siderastreidae</tspan></text>
  </g>
  <g class="cls-2">
    <text class="cls-1" transform="translate(256.13 570.46) rotate(-88.35)"><tspan x="0" y="0">Montastraeidae</tspan></text>
  </g>
  <g class="cls-2">
    <text class="cls-1" transform="translate(219.44 563.97) rotate(-80.1)"><tspan x="0" y="0">Caryophylliidae</tspan></text>
  </g>
  <g class="cls-2">
    <text class="cls-1" transform="translate(182.33 549.82) rotate(-71.97)"><tspan x="0" y="0">Leptastreidae</tspan></text>
  </g>
  <g class="cls-2">
    <text class="cls-1" transform="translate(154.59 526.71) rotate(-63.63)"><tspan x="0" y="0">Alcyoniidae</tspan></text>
  </g>
  <g class="cls-2">
    <text class="cls-1" transform="translate(124.39 509.51) rotate(-55.28)"><tspan x="0" y="0">Coralliidae</tspan></text>
  </g>
  <g class="cls-2">
    <text class="cls-1" transform="translate(91.8 489.92) rotate(-47.15)"><tspan x="0" y="0">Gorgoniidae</tspan></text>
  </g>
  <g class="cls-2">
    <text class="cls-1" transform="translate(67.1 462.56) rotate(-39.01)"><tspan x="0" y="0">Plexauridae</tspan></text>
  </g>
  <g class="cls-2">
    <text class="cls-1" transform="translate(59.41 424.49) rotate(-30.88)"><tspan x="0" y="0">Xeniidae</tspan></text>
  </g>
  <g class="cls-2">
    <text class="cls-1" transform="translate(22.98 403.77) rotate(-22.4)"><tspan x="0" y="0">Sphenopidae</tspan></text>
  </g>
  <g class="cls-2">
    <text class="cls-1" transform="translate(17.77 365.94) rotate(-13.8)"><tspan x="0" y="0">Zoanthidae</tspan></text>
  </g>
  <g class="cls-2">
    <text class="cls-1" transform="translate(22.98 324.41) rotate(-5.43)"><tspan x="0" y="0">Actiniidae</tspan></text>
  </g>
  <g class="cls-2">
    <text class="cls-1" transform="translate(17.77 289.21) rotate(2.82)"><tspan x="0" y="0">Sagartiidae</tspan></text>
  </g>
  <g class="cls-2">
    <text class="cls-1" transform="translate(17.77 255.68) rotate(11.07)"><tspan x="0" y="0">Axinellidae</tspan></text>
  </g>
  <g class="cls-2">
    <text class="cls-1" transform="translate(4.07 209.97) rotate(19.44)"><tspan x="0" y="0">Symbiodiniaceae</tspan></text>
  </g>
  <g class="cls-2">
    <text class="cls-1" transform="translate(32.29 178.01) rotate(27.81)"><tspan x="0" y="0">Lessoniaceae</tspan></text>
  </g>
  <g class="cls-2">
    <text class="cls-1" transform="translate(59.1 149.68) rotate(34.87)"><tspan x="0" y="0">Milleporidae</tspan></text>
  </g>
  <g class="cls-2">
    <text class="cls-1" transform="translate(85.07 124.26) rotate(44.42)"><tspan x="0" y="0">Agelasidae</tspan></text>
  </g>
  <g class="cls-2">
    <text class="cls-1" transform="translate(108.82 100.69) rotate(52.56)"><tspan x="0" y="0">Crambeidae</tspan></text>
  </g>
  <g class="cls-2">
    <text class="cls-1" transform="translate(135.02 76.08) rotate(60.7)"><tspan x="0" y="0">Polycitoridae</tspan></text>
  </g>
  <g class="cls-2">
    <text class="cls-1" transform="translate(171 68.69) rotate(68.83)"><tspan x="0" y="0">Dysideidae</tspan></text>
  </g>
  <g class="cls-2">
    <text class="cls-1" transform="translate(206.48 58.64) rotate(76.97)"><tspan x="0" y="0">Petrosiidae</tspan></text>
  </g>
  <g class="cls-2">
    <text class="cls-1" transform="translate(240.66 54.88) rotate(85.1)"><tspan class="cls-7" x="0" y="0">V</tspan><tspan x="6.3" y="0">eretillidae</tspan></text>
  </g>
</svg>