<?xml version="1.0" encoding="utf-8"?>
<!-- Generator: Adobe Illustrator 28.3.0, SVG Export Plug-In . SVG Version: 6.00 Build 0)  -->
<svg version="1.1" id="Layer_1" xmlns="http://www.w3.org/2000/svg" xmlns:xlink="http://www.w3.org/1999/xlink" x="0px" y="0px"
	 viewBox="0 0 646 984" style="enable-background:new 0 0 646 984;" xml:space="preserve">
<style type="text/css">
	.st0{fill:none;stroke:#CCCCCC;}
	.st1{fill:#B46E92;}
	.st2{font-family:'ArialMT';}
	.st3{font-size:10px;}
</style>
<path class="st0" d="M189.5,60.1c161.2,0,161.2-46.2,322.5-46.2"/>
<path class="st0" d="M189.5,60.1c161.2,0,161.2-28.9,322.5-28.9"/>
<path class="st0" d="M189.5,60.1c161.2,0,161.2-15.3,322.5-15.3"/>
<path class="st0" d="M189.5,60.1c161.2,0,161.2-3.5,322.5-3.5"/>
<path class="st0" d="M189.5,60.1c161.2,0,161.2,6.5,322.5,6.5"/>
<path class="st0" d="M189.5,60.1c161.2,0,161.2,16.4,322.5,16.4"/>
<path class="st0" d="M189.5,60.1c161.2,0,161.2,26.3,322.5,26.3"/>
<path class="st0" d="M189.5,60.1c161.2,0,161.2,36.3,322.5,36.3"/>
<path class="st0" d="M189.5,60.1c161.2,0,161.2,46.2,322.5,46.2"/>
<path class="st0" d="M189.5,160.5c161.2,0,161.2-42.5,322.5-42.5"/>
<path class="st0" d="M189.5,160.5c161.2,0,161.2-28.9,322.5-28.9"/>
<path class="st0" d="M189.5,160.5c161.2,0,161.2-17.1,322.5-17.1"/>
<path class="st0" d="M189.5,160.5c161.2,0,161.2-7.2,322.5-7.2"/>
<path class="st0" d="M189.5,160.5c161.2,0,161.2,2.8,322.5,2.8"/>
<path class="st0" d="M189.5,160.5c161.2,0,161.2,12.7,322.5,12.7"/>
<path class="st0" d="M189.5,160.5c161.2,0,161.2,22.6,322.5,22.6"/>
<path class="st0" d="M189.5,160.5c161.2,0,161.2,32.6,322.5,32.6"/>
<path class="st0" d="M189.5,160.5c161.2,0,161.2,42.5,322.5,42.5"/>
<path class="st0" d="M189.5,247.7c161.2,0,161.2-31.4,322.5-31.4"/>
<path class="st0" d="M189.5,247.7c161.2,0,161.2-18.2,322.5-18.2"/>
<path class="st0" d="M189.5,247.7c161.2,0,161.2-8.3,322.5-8.3"/>
<path class="st0" d="M189.5,247.7c161.2,0,161.2,1.6,322.5,1.6"/>
<path class="st0" d="M189.5,247.7c161.2,0,161.2,11.6,322.5,11.6"/>
<path class="st0" d="M189.5,247.7c161.2,0,161.2,21.5,322.5,21.5"/>
<path class="st0" d="M189.5,247.7c161.2,0,161.2,31.4,322.5,31.4"/>
<path class="st0" d="M189.5,313.9c161.2,0,161.2-24.8,322.5-24.8"/>
<path class="st0" d="M189.5,313.9c161.2,0,161.2-14.9,322.5-14.9"/>
<path class="st0" d="M189.5,313.9c161.2,0,161.2-5,322.5-5"/>
<path class="st0" d="M189.5,313.9c161.2,0,161.2,5,322.5,5"/>
<path class="st0" d="M189.5,313.9c161.2,0,161.2,14.9,322.5,14.9"/>
<path class="st0" d="M189.5,313.9c161.2,0,161.2,24.8,322.5,24.8"/>
<path class="st0" d="M189.5,368.4c161.2,0,161.2-16.5,322.5-16.5"/>
<path class="st0" d="M189.5,368.4c161.2,0,161.2-3.3,322.5-3.3"/>
<path class="st0" d="M189.5,368.4c161.2,0,161.2,6.6,322.5,6.6"/>
<path class="st0" d="M189.5,368.4c161.2,0,161.2,16.5,322.5,16.5"/>
<path class="st0" d="M189.5,419.7c161.2,0,161.2-24.8,322.5-24.8"/>
<path class="st0" d="M189.5,419.7c161.2,0,161.2-14.9,322.5-14.9"/>
<path class="st0" d="M189.5,419.7c161.2,0,161.2-5,322.5-5"/>
<path class="st0" d="M189.5,419.7c161.2,0,161.2,5,322.5,5"/>
<path class="st0" d="M189.5,419.7c161.2,0,161.2,14.9,322.5,14.9"/>
<path class="st0" d="M189.5,419.7c161.2,0,161.2,24.8,322.5,24.8"/>
<path class="st0" d="M189.5,477.2c161.2,0,161.2-20.8,322.5-20.8"/>
<path class="st0" d="M189.5,477.2c161.2,0,161.2-9,322.5-9"/>
<path class="st0" d="M189.5,477.2c161.2,0,161.2,0.9,322.5,0.9"/>
<path class="st0" d="M189.5,477.2c161.2,0,161.2,10.9,322.5,10.9"/>
<path class="st0" d="M189.5,477.2c161.2,0,161.2,20.8,322.5,20.8"/>
<path class="st0" d="M189.5,527.7c161.2,0,161.2-19.9,322.5-19.9"/>
<path class="st0" d="M189.5,527.7c161.2,0,161.2-9.9,322.5-9.9"/>
<path class="st0" d="M189.5,527.7c161.2,0,161.2,0,322.5,0"/>
<path class="st0" d="M189.5,527.7c161.2,0,161.2,9.9,322.5,9.9"/>
<path class="st0" d="M189.5,527.7c161.2,0,161.2,19.9,322.5,19.9"/>
<path class="st0" d="M189.5,572.4c161.2,0,161.2-14.9,322.5-14.9"/>
<path class="st0" d="M189.5,572.4c161.2,0,161.2-5,322.5-5"/>
<path class="st0" d="M189.5,572.4c161.2,0,161.2,5,322.5,5"/>
<path class="st0" d="M189.5,572.4c161.2,0,161.2,14.9,322.5,14.9"/>
<path class="st0" d="M189.5,607.2c161.2,0,161.2-9.9,322.5-9.9"/>
<path class="st0" d="M189.5,607.2c161.2,0,161.2,0,322.5,0"/>
<path class="st0" d="M189.5,607.2c161.2,0,161.2,9.9,322.5,9.9"/>
<path class="st0" d="M189.5,637c161.2,0,161.2-9.9,322.5-9.9"/>
<path class="st0" d="M189.5,637c161.2,0,161.2,0,322.5,0"/>
<path class="st0" d="M189.5,637c161.2,0,161.2,9.9,322.5,9.9"/>
<path class="st0" d="M189.5,666.8c161.2,0,161.2-9.9,322.5-9.9"/>
<path class="st0" d="M189.5,666.8c161.2,0,161.2,0,322.5,0"/>
<path class="st0" d="M189.5,666.8c161.2,0,161.2,9.9,322.5,9.9"/>
<path class="st0" d="M189.5,691.6c161.2,0,161.2-5,322.5-5"/>
<path class="st0" d="M189.5,691.6c161.2,0,161.2,5,322.5,5"/>
<path class="st0" d="M189.5,708.4c161.2,0,161.2,0,322.5,0"/>
<path class="st0" d="M189.5,725.1c161.2,0,161.2-5,322.5-5"/>
<path class="st0" d="M189.5,725.1c161.2,0,161.2,5,322.5,5"/>
<path class="st0" d="M189.5,745c161.2,0,161.2-5,322.5-5"/>
<path class="st0" d="M189.5,745c161.2,0,161.2,5,322.5,5"/>
<path class="st0" d="M189.5,764.9c161.2,0,161.2-5,322.5-5"/>
<path class="st0" d="M189.5,764.9c161.2,0,161.2,5,322.5,5"/>
<path class="st0" d="M189.5,784.7c161.2,0,161.2-5,322.5-5"/>
<path class="st0" d="M189.5,784.7c161.2,0,161.2,5,322.5,5"/>
<path class="st0" d="M189.5,804.6c161.2,0,161.2-5,322.5-5"/>
<path class="st0" d="M189.5,804.6c161.2,0,161.2,5,322.5,5"/>
<path class="st0" d="M189.5,824.5c161.2,0,161.2-5,322.5-5"/>
<path class="st0" d="M189.5,824.5c161.2,0,161.2,5,322.5,5"/>
<path class="st0" d="M189.5,839.4c161.2,0,161.2,0,322.5,0"/>
<path class="st0" d="M189.5,849.3c161.2,0,161.2,0,322.5,0"/>
<path class="st0" d="M189.5,859.2c161.2,0,161.2,0,322.5,0"/>
<path class="st0" d="M189.5,869.1c161.2,0,161.2,0,322.5,0"/>
<path class="st0" d="M189.5,879.1c161.2,0,161.2,0,322.5,0"/>
<path class="st0" d="M189.5,889c161.2,0,161.2,0,322.5,0"/>
<path class="st0" d="M189.5,898.9c161.2,0,161.2,0,322.5,0"/>
<path class="st0" d="M189.5,908.9c161.2,0,161.2,0,322.5,0"/>
<path class="st0" d="M189.5,918.8c161.2,0,161.2,0,322.5,0"/>
<path class="st0" d="M189.5,928.7c161.2,0,161.2,0,322.5,0"/>
<path class="st0" d="M189.5,938.7c161.2,0,161.2,0,322.5,0"/>
<path class="st0" d="M189.5,948.6c161.2,0,161.2,0,322.5,0"/>
<path class="st0" d="M189.5,958.5c161.2,0,161.2,0,322.5,0"/>
<path class="st0" d="M189.5,968.5c161.2,0,161.2,0,322.5,0"/>
<path class="st0" d="M189.5,978.4c161.2,0,161.2,0,322.5,0"/>
<circle class="st1" cx="189.5" cy="60.1" r="5"/>
<text transform="matrix(1 0 0 1 112.0078 63.5564)" class="st2 st3">Southern China</text>
<circle class="st1" cx="189.5" cy="160.5" r="5"/>
<text transform="matrix(1 0 0 1 77.1885 164.0386)" class="st2 st3">Western Mediterranean</text>
<circle class="st1" cx="189.5" cy="247.7" r="5"/>
<text transform="matrix(1 0 0 1 44.7617 251.1812)" class="st2 st3">Lord Howe and Norfolk Islands</text>
<circle class="st1" cx="189.5" cy="313.9" r="5"/>
<text transform="matrix(1 0 0 1 70.8945 317.3785)" class="st2 st3">Central Kuroshio Current</text>
<circle class="st1" cx="189.5" cy="368.4" r="5"/>
<text transform="matrix(1 0 0 1 112.0127 371.9474)" class="st2 st3">East China Sea</text>
<circle class="st1" cx="189.5" cy="419.7" r="5"/>
<text transform="matrix(1 0 0 1 60.3281 423.2458)" class="st2 st3">Gulf of Maine/Bay of Fundy</text>
<circle class="st1" cx="189.5" cy="477.2" r="5"/>
<text transform="matrix(1 0 0 1 144.249 480.6511)" class="st2 st3">Leeuwin</text>
<circle class="st1" cx="189.5" cy="527.7" r="5"/>
<text transform="matrix(1 0 0 1 140.9238 531.2395)" class="st2 st3">Houtman</text>
<circle class="st1" cx="189.5" cy="572.4" r="5"/>
<text transform="matrix(1 0 0 1 120.5381 575.9363)" class="st2 st3">Gulf of Tonkin</text>
<circle class="st1" cx="189.5" cy="607.2" r="5"/>
<text transform="matrix(1 0 0 1 82.5693 610.7005)" class="st2 st3">Arabian (Persian) Gulf</text>
<circle class="st1" cx="189.5" cy="637" r="5"/>
<text transform="matrix(1 0 0 1 136.4756 640.4984)" class="st2 st3">Carolinian</text>
<circle class="st1" cx="189.5" cy="666.8" r="5"/>
<text transform="matrix(1 0 0 1 112.0225 670.2963)" class="st2 st3">Tweed-Moreton</text>
<circle class="st1" cx="189.5" cy="691.6" r="5"/>
<text transform="matrix(1 0 0 1 127.584 695.1279)" class="st2 st3">Adriatic Sea</text>
<circle class="st1" cx="189.5" cy="708.4" r="5"/>
<text transform="matrix(1 0 0 1 68.6729 711.8773)" class="st2 st3">Azores Canaries Madeira</text>
<circle class="st1" cx="189.5" cy="725.1" r="5"/>
<text transform="matrix(1 0 0 1 129.249 728.6268)" class="st2 st3">Cape Howe</text>
<circle class="st1" cx="189.5" cy="745" r="5"/>
<text transform="matrix(1 0 0 1 1.9639 748.4921)" class="st2 st3">Central and Southern Great Barrier Reef</text>
<circle class="st1" cx="189.5" cy="764.9" r="5"/>
<text transform="matrix(1 0 0 1 119.2539 768.3574)" class="st2 st3">Eastern Brazil</text>
<circle class="st1" cx="189.5" cy="784.7" r="5"/>
<text transform="matrix(1 0 0 1 143.1504 788.2226)" class="st2 st3">Floridian</text>
<circle class="st1" cx="189.5" cy="804.6" r="5"/>
<text transform="matrix(1 0 0 1 95.9092 808.0878)" class="st2 st3">Northeastern Brazil</text>
<circle class="st1" cx="189.5" cy="824.5" r="5"/>
<text transform="matrix(1 0 0 1 94.2295 827.9531)" class="st2 st3">Southeastern Brazil</text>
<circle class="st1" cx="189.5" cy="839.4" r="5"/>
<text transform="matrix(1 0 0 1 62.5449 842.8521)" class="st2 st3">Andaman Sea Coral Coast</text>
<circle class="st1" cx="189.5" cy="849.3" r="5"/>
<text transform="matrix(1 0 0 1 144.249 852.7847)" class="st2 st3">Delagoa</text>
<circle class="st1" cx="189.5" cy="859.2" r="5"/>
<text transform="matrix(1 0 0 1 133.6826 862.7173)" class="st2 st3">Ionian Sea</text>
<circle class="st1" cx="189.5" cy="869.1" r="5"/>
<text transform="matrix(1 0 0 1 117.5596 872.65)" class="st2 st3">Levantine Sea</text>
<circle class="st1" cx="189.5" cy="879.1" r="5"/>
<text transform="matrix(1 0 0 1 84.791 882.5826)" class="st2 st3">Manning-Hawkesbury</text>
<circle class="st1" cx="189.5" cy="889" r="5"/>
<text transform="matrix(1 0 0 1 97.5693 892.5152)" class="st2 st3">Mascarene Islands</text>
<circle class="st1" cx="189.5" cy="898.9" r="5"/>
<text transform="matrix(1 0 0 1 158.1553 902.4478)" class="st2 st3">Natal</text>
<circle class="st1" cx="189.5" cy="908.9" r="5"/>
<text transform="matrix(1 0 0 1 142.0273 912.3804)" class="st2 st3">Ningaloo</text>
<circle class="st1" cx="189.5" cy="918.8" r="5"/>
<text transform="matrix(1 0 0 1 75.9043 922.3131)" class="st2 st3">Northern Gulf of Mexico</text>
<circle class="st1" cx="189.5" cy="928.7" r="5"/>
<text transform="matrix(1 0 0 1 31.9639 932.2457)" class="st2 st3">South China Sea Oceanic Islands</text>
<circle class="st1" cx="189.5" cy="938.7" r="5"/>
<text transform="matrix(1 0 0 1 48.6289 942.1783)" class="st2 st3">South European Atlantic Shelf</text>
<circle class="st1" cx="189.5" cy="948.6" r="5"/>
<text transform="matrix(1 0 0 1 113.1211 952.111)" class="st2 st3">South Kuroshio</text>
<circle class="st1" cx="189.5" cy="958.5" r="5"/>
<text transform="matrix(1 0 0 1 1.4414 962.0436)" class="st2 st3">Torres Strait Northern Great Barrier Reef</text>
<circle class="st1" cx="189.5" cy="968.5" r="5"/>
<text transform="matrix(1 0 0 1 84.4199 971.9763)" class="st2 st3">West Caroline Islands</text>
<circle class="st1" cx="189.5" cy="978.4" r="5"/>
<text transform="matrix(1 0 0 1 119.9863 981.9089)" class="st2 st3">Western India</text>
<circle class="st1" cx="512" cy="13.9" r="10"/>
<text transform="matrix(1 0 0 1 524 17.3637)" class="st2 st3">Ang, Put</text>
<circle class="st1" cx="512" cy="31.2" r="6.3"/>
<text transform="matrix(1 0 0 1 520.3246 34.6691)" class="st2 st3">Chan, Leo</text>
<circle class="st1" cx="512" cy="44.8" r="6.3"/>
<text transform="matrix(1 0 0 1 520.3246 48.3028)" class="st2 st3">Qiu, Jian-Wen</text>
<circle class="st1" cx="512" cy="56.6" r="4.5"/>
<text transform="matrix(1 0 0 1 518.4721 60.086)" class="st2 st3">Baker, David</text>
<circle class="st1" cx="512" cy="66.5" r="4.5"/>
<text transform="matrix(1 0 0 1 518.4721 70.0186)" class="st2 st3">Jiang, Leilei</text>
<circle class="st1" cx="512" cy="76.5" r="4.5"/>
<text transform="matrix(1 0 0 1 518.4721 79.9512)" class="st2 st3">Li, Shu</text>
<circle class="st1" cx="512" cy="86.4" r="4.5"/>
<text transform="matrix(1 0 0 1 518.4721 89.8838)" class="st2 st3">Qian, Pei-Yuan</text>
<circle class="st1" cx="512" cy="96.3" r="4.5"/>
<text transform="matrix(1 0 0 1 518.4721 99.8165)" class="st2 st3">Wang, Guanghua</text>
<circle class="st1" cx="512" cy="106.2" r="4.5"/>
<text transform="matrix(1 0 0 1 518.4721 109.7491)" class="st2 st3">Xia, Xiaomin</text>
<circle class="st1" cx="512" cy="118" r="6.3"/>
<text transform="matrix(1 0 0 1 520.3246 121.5323)" class="st2 st3">Garrabou, Joaquim</text>
<circle class="st1" cx="512" cy="131.7" r="6.3"/>
<text transform="matrix(1 0 0 1 520.3246 135.166)" class="st2 st3">Goffredo, Stefano</text>
<circle class="st1" cx="512" cy="143.4" r="4.5"/>
<text transform="matrix(1 0 0 1 518.4721 146.9491)" class="st2 st3">Cerrano, Carlo</text>
<circle class="st1" cx="512" cy="153.4" r="4.5"/>
<text transform="matrix(1 0 0 1 518.4721 156.8818)" class="st2 st3">Ferrier-Pages, Christine</text>
<circle class="st1" cx="512" cy="163.3" r="4.5"/>
<text transform="matrix(1 0 0 1 518.4721 166.8144)" class="st2 st3">Linares, Cristoma</text>
<circle class="st1" cx="512" cy="173.2" r="4.5"/>
<text transform="matrix(1 0 0 1 518.4721 176.747)" class="st2 st3">Montagna, Paolo</text>
<circle class="st1" cx="512" cy="183.2" r="4.5"/>
<text transform="matrix(1 0 0 1 518.4721 186.6797)" class="st2 st3">Padilla-Gamiño, Jacqueline</text>
<circle class="st1" cx="512" cy="193.1" r="4.5"/>
<text transform="matrix(1 0 0 1 518.4721 196.6123)" class="st2 st3">Peirano Andrea</text>
<circle class="st1" cx="512" cy="203" r="4.5"/>
<text transform="matrix(1 0 0 1 518.4721 206.5449)" class="st2 st3">Popijač, Aleksandar</text>
<circle class="st1" cx="512" cy="216.2" r="7.7"/>
<text transform="matrix(1 0 0 1 521.746 219.748)" class="st2 st3">Davy, Simon</text>
<circle class="st1" cx="512" cy="229.5" r="4.5"/>
<text transform="matrix(1 0 0 1 518.4721 232.9512)" class="st2 st3">Ainsworth, Tracy</text>
<circle class="st1" cx="512" cy="239.4" r="4.5"/>
<text transform="matrix(1 0 0 1 518.4721 242.8838)" class="st2 st3">Baird, Maria</text>
<circle class="st1" cx="512" cy="249.3" r="4.5"/>
<text transform="matrix(1 0 0 1 518.4721 252.8165)" class="st2 st3">Diamond, Sandra</text>
<circle class="st1" cx="512" cy="259.2" r="4.5"/>
<text transform="matrix(1 0 0 1 518.4721 262.7491)" class="st2 st3">Johnston, Emma</text>
<circle class="st1" cx="512" cy="269.2" r="4.5"/>
<text transform="matrix(1 0 0 1 518.4721 272.6817)" class="st2 st3">Santos, Isaac</text>
<circle class="st1" cx="512" cy="279.1" r="4.5"/>
<text transform="matrix(1 0 0 1 518.4721 282.6143)" class="st2 st3">Carroll, Andrew</text>
<circle class="st1" cx="512" cy="289" r="4.5"/>
<text transform="matrix(1 0 0 1 518.4721 292.5469)" class="st2 st3">Beger, Maria</text>
<circle class="st1" cx="512" cy="299" r="4.5"/>
<text transform="matrix(1 0 0 1 518.4721 302.4796)" class="st2 st3">Hall-Spencer, Jason</text>
<circle class="st1" cx="512" cy="308.9" r="4.5"/>
<text transform="matrix(1 0 0 1 518.4721 312.4122)" class="st2 st3">Kurihara, Haruko</text>
<circle class="st1" cx="512" cy="318.8" r="4.5"/>
<text transform="matrix(1 0 0 1 518.4721 322.3448)" class="st2 st3">Nomura, Keiichi</text>
<circle class="st1" cx="512" cy="328.8" r="4.5"/>
<text transform="matrix(1 0 0 1 518.4721 332.2775)" class="st2 st3">Yasuda, Nina</text>
<circle class="st1" cx="512" cy="338.7" r="4.5"/>
<text transform="matrix(1 0 0 1 518.4721 342.2101)" class="st2 st3">Yuyama, Ikuko</text>
<circle class="st1" cx="512" cy="351.9" r="7.7"/>
<text transform="matrix(1 0 0 1 521.746 355.4133)" class="st2 st3">Chen, Chaolun Allen</text>
<circle class="st1" cx="512" cy="365.1" r="4.5"/>
<text transform="matrix(1 0 0 1 518.4721 368.6164)" class="st2 st3">Beger, Maria</text>
<circle class="st1" cx="512" cy="375" r="4.5"/>
<text transform="matrix(1 0 0 1 518.4721 378.549)" class="st2 st3">Nomura, Keiichi</text>
<circle class="st1" cx="512" cy="385" r="4.5"/>
<text transform="matrix(1 0 0 1 518.4721 388.4816)" class="st2 st3">Parkinson, Hogn Everett</text>
<circle class="st1" cx="512" cy="394.9" r="4.5"/>
<text transform="matrix(1 0 0 1 518.4721 398.4142)" class="st2 st3">Barshis, Daniel</text>
<circle class="st1" cx="512" cy="404.8" r="4.5"/>
<text transform="matrix(1 0 0 1 518.4721 408.3469)" class="st2 st3">Davies, Sarah</text>
<circle class="st1" cx="512" cy="414.8" r="4.5"/>
<text transform="matrix(1 0 0 1 518.4721 418.2795)" class="st2 st3">McCorkle, Daniel</text>
<circle class="st1" cx="512" cy="424.7" r="4.5"/>
<text transform="matrix(1 0 0 1 518.4721 428.2121)" class="st2 st3">Roberson, Loretta</text>
<circle class="st1" cx="512" cy="434.6" r="4.5"/>
<text transform="matrix(1 0 0 1 518.4721 438.1447)" class="st2 st3">Rotjan, Randi</text>
<circle class="st1" cx="512" cy="444.6" r="4.5"/>
<text transform="matrix(1 0 0 1 518.4721 448.0774)" class="st2 st3">Thornhill, Daniel</text>
<circle class="st1" cx="512" cy="456.4" r="6.3"/>
<text transform="matrix(1 0 0 1 520.3246 459.8606)" class="st2 st3">McCulloch, Malcolm</text>
<circle class="st1" cx="512" cy="468.1" r="4.5"/>
<text transform="matrix(1 0 0 1 518.4721 471.6437)" class="st2 st3">Barrett, Neville</text>
<circle class="st1" cx="512" cy="478.1" r="4.5"/>
<text transform="matrix(1 0 0 1 518.4721 481.5764)" class="st2 st3">Clode, Peta</text>
<circle class="st1" cx="512" cy="488" r="4.5"/>
<text transform="matrix(1 0 0 1 518.4721 491.509)" class="st2 st3">Hovey, Renae</text>
<circle class="st1" cx="512" cy="497.9" r="4.5"/>
<text transform="matrix(1 0 0 1 518.4721 501.4416)" class="st2 st3">Schoepf, Verena</text>
<circle class="st1" cx="512" cy="507.9" r="4.5"/>
<text transform="matrix(1 0 0 1 518.4721 511.3742)" class="st2 st3">Barrett, Neville</text>
<circle class="st1" cx="512" cy="517.8" r="4.5"/>
<text transform="matrix(1 0 0 1 518.4721 521.3068)" class="st2 st3">Byrne, Maria</text>
<circle class="st1" cx="512" cy="527.7" r="4.5"/>
<text transform="matrix(1 0 0 1 518.4721 531.2395)" class="st2 st3">Hovey, Renae</text>
<circle class="st1" cx="512" cy="537.7" r="4.5"/>
<text transform="matrix(1 0 0 1 518.4721 541.1721)" class="st2 st3">McCulloch, Malcolm</text>
<circle class="st1" cx="512" cy="547.6" r="4.5"/>
<text transform="matrix(1 0 0 1 518.4721 551.1047)" class="st2 st3">Wernberg, Thomas</text>
<circle class="st1" cx="512" cy="557.5" r="4.5"/>
<text transform="matrix(1 0 0 1 518.4721 561.0374)" class="st2 st3">Chen, Xiaoyan</text>
<circle class="st1" cx="512" cy="567.5" r="4.5"/>
<text transform="matrix(1 0 0 1 518.4721 570.97)" class="st2 st3">Jiang, Leilei</text>
<circle class="st1" cx="512" cy="577.4" r="4.5"/>
<text transform="matrix(1 0 0 1 518.4721 580.9026)" class="st2 st3">Li, Shu</text>
<circle class="st1" cx="512" cy="587.3" r="4.5"/>
<text transform="matrix(1 0 0 1 518.4721 590.8353)" class="st2 st3">Xia, Xiaomin</text>
<circle class="st1" cx="512" cy="597.3" r="4.5"/>
<text transform="matrix(1 0 0 1 518.4721 600.7679)" class="st2 st3">Bauman, Andrew</text>
<circle class="st1" cx="512" cy="607.2" r="4.5"/>
<text transform="matrix(1 0 0 1 518.4721 610.7005)" class="st2 st3">Negaresta, Hossein</text>
<circle class="st1" cx="512" cy="617.1" r="4.5"/>
<text transform="matrix(1 0 0 1 518.4721 620.6331)" class="st2 st3">Pratchett, Morgan</text>
<circle class="st1" cx="512" cy="627.1" r="4.5"/>
<text transform="matrix(1 0 0 1 518.4721 630.5658)" class="st2 st3">Castillo, Karl</text>
<circle class="st1" cx="512" cy="637" r="4.5"/>
<text transform="matrix(1 0 0 1 518.4721 640.4984)" class="st2 st3">Davies, Sarah</text>
<circle class="st1" cx="512" cy="646.9" r="4.5"/>
<text transform="matrix(1 0 0 1 518.4721 650.431)" class="st2 st3">Hay, Mark</text>
<circle class="st1" cx="512" cy="656.9" r="4.5"/>
<text transform="matrix(1 0 0 1 518.4721 660.3636)" class="st2 st3">Beger, Maria</text>
<circle class="st1" cx="512" cy="666.8" r="4.5"/>
<text transform="matrix(1 0 0 1 518.4721 670.2963)" class="st2 st3">Carroll, Andrew</text>
<circle class="st1" cx="512" cy="676.7" r="4.5"/>
<text transform="matrix(1 0 0 1 518.4721 680.2289)" class="st2 st3">Pandolfi, John</text>
<circle class="st1" cx="512" cy="686.7" r="4.5"/>
<text transform="matrix(1 0 0 1 518.4721 690.1616)" class="st2 st3">Montagna, Paolo</text>
<circle class="st1" cx="512" cy="696.6" r="4.5"/>
<text transform="matrix(1 0 0 1 518.4721 700.0942)" class="st2 st3">Rodic, Petra</text>
<circle class="st1" cx="512" cy="708.4" r="6.3"/>
<text transform="matrix(1 0 0 1 520.3246 711.8773)" class="st2 st3">Clemente, Sabrina</text>
<circle class="st1" cx="512" cy="720.2" r="4.5"/>
<text transform="matrix(1 0 0 1 518.4721 723.6605)" class="st2 st3">Matthews, Jennifer</text>
<circle class="st1" cx="512" cy="730.1" r="4.5"/>
<text transform="matrix(1 0 0 1 518.4721 733.5931)" class="st2 st3">Suggett, David</text>
<circle class="st1" cx="512" cy="740" r="4.5"/>
<text transform="matrix(1 0 0 1 518.4721 743.5258)" class="st2 st3">Ainsworth, Tracy</text>
<circle class="st1" cx="512" cy="750" r="4.5"/>
<text transform="matrix(1 0 0 1 518.4721 753.4584)" class="st2 st3">Baird, Maria</text>
<circle class="st1" cx="512" cy="759.9" r="4.5"/>
<text transform="matrix(1 0 0 1 518.4721 763.391)" class="st2 st3">Longo, Guilherme Ortigara</text>
<circle class="st1" cx="512" cy="769.8" r="4.5"/>
<text transform="matrix(1 0 0 1 518.4721 773.3237)" class="st2 st3">Mies, Miguel</text>
<circle class="st1" cx="512" cy="779.8" r="4.5"/>
<text transform="matrix(1 0 0 1 518.4721 783.2563)" class="st2 st3">Gilliam, David</text>
<circle class="st1" cx="512" cy="789.7" r="4.5"/>
<text transform="matrix(1 0 0 1 518.4721 793.1889)" class="st2 st3">Voss, Joshua</text>
<circle class="st1" cx="512" cy="799.6" r="4.5"/>
<text transform="matrix(1 0 0 1 518.4721 803.1215)" class="st2 st3">Mies, Miguel</text>
<circle class="st1" cx="512" cy="809.6" r="4.5"/>
<text transform="matrix(1 0 0 1 518.4721 813.0541)" class="st2 st3">Soares, Marcelo</text>
<circle class="st1" cx="512" cy="819.5" r="4.5"/>
<text transform="matrix(1 0 0 1 518.4721 822.9868)" class="st2 st3">Coutinho, Ricardo</text>
<circle class="st1" cx="512" cy="829.4" r="4.5"/>
<text transform="matrix(1 0 0 1 518.4721 832.9194)" class="st2 st3">Flores, Augusto</text>
<circle class="st1" cx="512" cy="839.4" r="4.5"/>
<text transform="matrix(1 0 0 1 518.4721 842.8521)" class="st2 st3">Jiang, Leilei</text>
<circle class="st1" cx="512" cy="849.3" r="4.5"/>
<text transform="matrix(1 0 0 1 518.4721 852.7847)" class="st2 st3">Schleyer, Michael</text>
<circle class="st1" cx="512" cy="859.2" r="4.5"/>
<text transform="matrix(1 0 0 1 518.4721 862.7173)" class="st2 st3">Montagna, Paolo</text>
<circle class="st1" cx="512" cy="869.1" r="4.5"/>
<text transform="matrix(1 0 0 1 518.4721 872.65)" class="st2 st3">Ferrier-Pages, Christine</text>
<circle class="st1" cx="512" cy="879.1" r="4.5"/>
<text transform="matrix(1 0 0 1 518.4721 882.5826)" class="st2 st3">Pandolfi, John</text>
<circle class="st1" cx="512" cy="889" r="4.5"/>
<text transform="matrix(1 0 0 1 518.4721 892.5152)" class="st2 st3">Muthiga, Nyawira</text>
<circle class="st1" cx="512" cy="898.9" r="4.5"/>
<text transform="matrix(1 0 0 1 518.4721 902.4478)" class="st2 st3">Glassom, David</text>
<circle class="st1" cx="512" cy="908.9" r="4.5"/>
<text transform="matrix(1 0 0 1 518.4721 912.3804)" class="st2 st3">McCulloch, Malcolm</text>
<circle class="st1" cx="512" cy="918.8" r="4.5"/>
<text transform="matrix(1 0 0 1 518.4721 922.3131)" class="st2 st3">Enochs, Ian</text>
<circle class="st1" cx="512" cy="928.7" r="4.5"/>
<text transform="matrix(1 0 0 1 518.4721 932.2457)" class="st2 st3">Qin, Zhenjun</text>
<circle class="st1" cx="512" cy="938.7" r="4.5"/>
<text transform="matrix(1 0 0 1 518.4721 942.1783)" class="st2 st3">Rosa, Rui</text>
<circle class="st1" cx="512" cy="948.6" r="4.5"/>
<text transform="matrix(1 0 0 1 518.4721 952.111)" class="st2 st3">Kurihara, Haruko</text>
<circle class="st1" cx="512" cy="958.5" r="4.5"/>
<text transform="matrix(1 0 0 1 518.4721 962.0436)" class="st2 st3">Baird, Maria</text>
<circle class="st1" cx="512" cy="968.5" r="4.5"/>
<text transform="matrix(1 0 0 1 518.4721 971.9763)" class="st2 st3">Jiang, Leilei</text>
<circle class="st1" cx="512" cy="978.4" r="4.5"/>
<text transform="matrix(1 0 0 1 518.4721 981.9089)" class="st2 st3">Ingole, Baban</text>
</svg>
