<?xml version="1.0" encoding="utf-8"?>
<!-- Generator: Adobe Illustrator 28.3.0, SVG Export Plug-In . SVG Version: 6.00 Build 0)  -->
<svg version="1.1" id="Layer_1" xmlns="http://www.w3.org/2000/svg" xmlns:xlink="http://www.w3.org/1999/xlink" x="0px" y="0px"
	 viewBox="0 0 609 1000" style="enable-background:new 0 0 609 1000;" xml:space="preserve">
<style type="text/css">
	.st0{fill:none;stroke:#CCCCCC;}
	.st1{fill:#1F77B4;}
	.st2{font-family:'ArialMT';}
	.st3{font-size:10px;}
</style>
<path class="st0" d="M137.2,116.7c161.2,0,161.2-103.1,322.5-103.1"/>
<path class="st0" d="M137.2,116.7c161.2,0,161.2-90.6,322.5-90.6"/>
<path class="st0" d="M137.2,116.7c161.2,0,161.2-78.1,322.5-78.1"/>
<path class="st0" d="M137.2,116.7c161.2,0,161.2-65.7,322.5-65.7"/>
<path class="st0" d="M137.2,116.7c161.2,0,161.2-53.2,322.5-53.2"/>
<path class="st0" d="M137.2,116.7c161.2,0,161.2-40.7,322.5-40.7"/>
<path class="st0" d="M137.2,116.7c161.2,0,161.2-28.2,322.5-28.2"/>
<path class="st0" d="M137.2,116.7c161.2,0,161.2-15.7,322.5-15.7"/>
<path class="st0" d="M137.2,116.7c161.2,0,161.2-3.3,322.5-3.3"/>
<path class="st0" d="M137.2,116.7c161.2,0,161.2,9.2,322.5,9.2"/>
<path class="st0" d="M137.2,116.7c161.2,0,161.2,25,322.5,25"/>
<path class="st0" d="M137.2,116.7c161.2,0,161.2,40.7,322.5,40.7"/>
<path class="st0" d="M137.2,116.7c161.2,0,161.2,53.2,322.5,53.2"/>
<path class="st0" d="M137.2,116.7c161.2,0,161.2,65.7,322.5,65.7"/>
<path class="st0" d="M137.2,116.7c161.2,0,161.2,78.1,322.5,78.1"/>
<path class="st0" d="M137.2,116.7c161.2,0,161.2,90.6,322.5,90.6"/>
<path class="st0" d="M137.2,116.7c161.2,0,161.2,103.1,322.5,103.1"/>
<path class="st0" d="M137.2,268.3c161.2,0,161.2-30.5,322.5-30.5"/>
<path class="st0" d="M137.2,268.3c161.2,0,161.2-12.5,322.5-12.5"/>
<path class="st0" d="M137.2,268.3c161.2,0,161.2,1.8,322.5,1.8"/>
<path class="st0" d="M137.2,268.3c161.2,0,161.2,16.2,322.5,16.2"/>
<path class="st0" d="M137.2,268.3c161.2,0,161.2,30.5,322.5,30.5"/>
<path class="st0" d="M137.2,389.9c161.2,0,161.2-76.7,322.5-76.7"/>
<path class="st0" d="M137.2,389.9c161.2,0,161.2-64.2,322.5-64.2"/>
<path class="st0" d="M137.2,389.9c161.2,0,161.2-49.9,322.5-49.9"/>
<path class="st0" d="M137.2,389.9c161.2,0,161.2-35.6,322.5-35.6"/>
<path class="st0" d="M137.2,389.9c161.2,0,161.2-23.1,322.5-23.1"/>
<path class="st0" d="M137.2,389.9c161.2,0,161.2-10.6,322.5-10.6"/>
<path class="st0" d="M137.2,389.9c161.2,0,161.2,1.8,322.5,1.8"/>
<path class="st0" d="M137.2,389.9c161.2,0,161.2,14.3,322.5,14.3"/>
<path class="st0" d="M137.2,389.9c161.2,0,161.2,26.8,322.5,26.8"/>
<path class="st0" d="M137.2,389.9c161.2,0,161.2,39.3,322.5,39.3"/>
<path class="st0" d="M137.2,389.9c161.2,0,161.2,51.8,322.5,51.8"/>
<path class="st0" d="M137.2,389.9c161.2,0,161.2,64.2,322.5,64.2"/>
<path class="st0" d="M137.2,389.9c161.2,0,161.2,76.7,322.5,76.7"/>
<path class="st0" d="M137.2,479.1c161.2,0,161.2,0,322.5,0"/>
<path class="st0" d="M137.2,491.6c161.2,0,161.2,0,322.5,0"/>
<path class="st0" d="M137.2,505.9c161.2,0,161.2,0,322.5,0"/>
<path class="st0" d="M137.2,540.8c161.2,0,161.2-20.6,322.5-20.6"/>
<path class="st0" d="M137.2,540.8c161.2,0,161.2-6.2,322.5-6.2"/>
<path class="st0" d="M137.2,540.8c161.2,0,161.2,8.1,322.5,8.1"/>
<path class="st0" d="M137.2,540.8c161.2,0,161.2,20.6,322.5,20.6"/>
<path class="st0" d="M137.2,577.1c161.2,0,161.2,0,322.5,0"/>
<path class="st0" d="M137.2,624c161.2,0,161.2-31.2,322.5-31.2"/>
<path class="st0" d="M137.2,624c161.2,0,161.2-18.7,322.5-18.7"/>
<path class="st0" d="M137.2,624c161.2,0,161.2-6.2,322.5-6.2"/>
<path class="st0" d="M137.2,624c161.2,0,161.2,6.2,322.5,6.2"/>
<path class="st0" d="M137.2,624c161.2,0,161.2,18.7,322.5,18.7"/>
<path class="st0" d="M137.2,624c161.2,0,161.2,31.2,322.5,31.2"/>
<path class="st0" d="M137.2,683c161.2,0,161.2-13.4,322.5-13.4"/>
<path class="st0" d="M137.2,683c161.2,0,161.2,0.9,322.5,0.9"/>
<path class="st0" d="M137.2,683c161.2,0,161.2,13.4,322.5,13.4"/>
<path class="st0" d="M137.2,733.8c161.2,0,161.2-25,322.5-25"/>
<path class="st0" d="M137.2,733.8c161.2,0,161.2-12.5,322.5-12.5"/>
<path class="st0" d="M137.2,733.8c161.2,0,161.2,0,322.5,0"/>
<path class="st0" d="M137.2,733.8c161.2,0,161.2,12.5,322.5,12.5"/>
<path class="st0" d="M137.2,733.8c161.2,0,161.2,25,322.5,25"/>
<path class="st0" d="M137.2,774.5c161.2,0,161.2,0,322.5,0"/>
<path class="st0" d="M137.2,792.1c161.2,0,161.2,0,322.5,0"/>
<path class="st0" d="M137.2,806.4c161.2,0,161.2,0,322.5,0"/>
<path class="st0" d="M137.2,825.1c161.2,0,161.2-6.2,322.5-6.2"/>
<path class="st0" d="M137.2,825.1c161.2,0,161.2,6.2,322.5,6.2"/>
<path class="st0" d="M137.2,875.1c161.2,0,161.2-31.2,322.5-31.2"/>
<path class="st0" d="M137.2,875.1c161.2,0,161.2-18.7,322.5-18.7"/>
<path class="st0" d="M137.2,875.1c161.2,0,161.2-6.2,322.5-6.2"/>
<path class="st0" d="M137.2,875.1c161.2,0,161.2,6.2,322.5,6.2"/>
<path class="st0" d="M137.2,875.1c161.2,0,161.2,18.7,322.5,18.7"/>
<path class="st0" d="M137.2,875.1c161.2,0,161.2,31.2,322.5,31.2"/>
<path class="st0" d="M137.2,918.8c161.2,0,161.2,0,322.5,0"/>
<path class="st0" d="M137.2,931.2c161.2,0,161.2,0,322.5,0"/>
<path class="st0" d="M137.2,950c161.2,0,161.2-6.2,322.5-6.2"/>
<path class="st0" d="M137.2,950c161.2,0,161.2,6.2,322.5,6.2"/>
<path class="st0" d="M137.2,968.7c161.2,0,161.2,0,322.5,0"/>
<path class="st0" d="M137.2,981.2c161.2,0,161.2,0,322.5,0"/>
<circle class="st1" cx="137.2" cy="116.7" r="5"/>
<text transform="matrix(1 0 0 1 90.2994 120.2438)" class="st2 st3">Australia</text>
<circle class="st1" cx="137.2" cy="268.3" r="5"/>
<text transform="matrix(1 0 0 1 79.1666 271.8239)" class="st2 st3">Hong Kong</text>
<circle class="st1" cx="137.2" cy="389.9" r="5"/>
<text transform="matrix(1 0 0 1 19.152 393.364)" class="st2 st3">United States of America</text>
<circle class="st1" cx="137.2" cy="479.1" r="5"/>
<text transform="matrix(1 0 0 1 94.1764 482.5748)" class="st2 st3">Canada</text>
<circle class="st1" cx="137.2" cy="491.6" r="5"/>
<text transform="matrix(1 0 0 1 83.6149 495.0555)" class="st2 st3">Singapore</text>
<circle class="st1" cx="137.2" cy="505.9" r="5"/>
<text transform="matrix(1 0 0 1 58.0534 509.3819)" class="st2 st3">United Kingdom</text>
<circle class="st1" cx="137.2" cy="540.8" r="5"/>
<text transform="matrix(1 0 0 1 110.8659 544.275)" class="st2 st3">Italy</text>
<circle class="st1" cx="137.2" cy="577.1" r="5"/>
<text transform="matrix(1 0 0 1 98.0778 580.5845)" class="st2 st3">Taiwan</text>
<circle class="st1" cx="137.2" cy="624" r="5"/>
<text transform="matrix(1 0 0 1 103.0778 627.5289)" class="st2 st3">China</text>
<circle class="st1" cx="137.2" cy="683" r="5"/>
<text transform="matrix(1 0 0 1 103.6295 686.4607)" class="st2 st3">Spain</text>
<circle class="st1" cx="137.2" cy="733.8" r="5"/>
<text transform="matrix(1 0 0 1 104.2008 737.3065)" class="st2 st3">Brazil</text>
<circle class="st1" cx="137.2" cy="774.5" r="5"/>
<text transform="matrix(1 0 0 1 70.2848 778.0106)" class="st2 st3">New Zealand</text>
<circle class="st1" cx="137.2" cy="792.1" r="5"/>
<text transform="matrix(1 0 0 1 93.6295 795.5988)" class="st2 st3">Monaco</text>
<circle class="st1" cx="137.2" cy="806.4" r="5"/>
<text transform="matrix(1 0 0 1 98.0826 809.9252)" class="st2 st3">France</text>
<circle class="st1" cx="137.2" cy="825.1" r="5"/>
<text transform="matrix(1 0 0 1 75.2848 828.6463)" class="st2 st3">South Africa</text>
<circle class="st1" cx="137.2" cy="875.1" r="5"/>
<text transform="matrix(1 0 0 1 101.9596 878.5692)" class="st2 st3">Japan</text>
<circle class="st1" cx="137.2" cy="918.8" r="5"/>
<text transform="matrix(1 0 0 1 107.5211 922.2518)" class="st2 st3">India</text>
<circle class="st1" cx="137.2" cy="931.2" r="5"/>
<text transform="matrix(1 0 0 1 111.9743 934.7325)" class="st2 st3">Iran</text>
<circle class="st1" cx="137.2" cy="950" r="5"/>
<text transform="matrix(1 0 0 1 96.9694 953.4536)" class="st2 st3">Croatia</text>
<circle class="st1" cx="137.2" cy="968.7" r="5"/>
<text transform="matrix(1 0 0 1 91.9596 972.1747)" class="st2 st3">Portugal</text>
<circle class="st1" cx="137.2" cy="981.2" r="5"/>
<text transform="matrix(1 0 0 1 88.0826 984.6554)" class="st2 st3">Germany</text>
<circle class="st1" cx="459.7" cy="13.6" r="4.5"/>
<text transform="matrix(1 0 0 1 467.1778 17.1361)" class="st2 st3">Ainsworth, Tracy</text>
<circle class="st1" cx="459.7" cy="26.1" r="4.5"/>
<text transform="matrix(1 0 0 1 467.1778 29.6168)" class="st2 st3">Baird, Maria</text>
<circle class="st1" cx="459.7" cy="38.6" r="4.5"/>
<text transform="matrix(1 0 0 1 467.1778 42.0975)" class="st2 st3">Barrett, Neville</text>
<circle class="st1" cx="459.7" cy="51.1" r="4.5"/>
<text transform="matrix(1 0 0 1 467.1778 54.5783)" class="st2 st3">Byrne, Maria</text>
<circle class="st1" cx="459.7" cy="63.6" r="4.5"/>
<text transform="matrix(1 0 0 1 467.1778 67.059)" class="st2 st3">Carroll, Andrew</text>
<circle class="st1" cx="459.7" cy="76" r="4.5"/>
<text transform="matrix(1 0 0 1 467.1778 79.5397)" class="st2 st3">Clode, Peta</text>
<circle class="st1" cx="459.7" cy="88.5" r="4.5"/>
<text transform="matrix(1 0 0 1 467.1778 92.0204)" class="st2 st3">Diamond, Sandra</text>
<circle class="st1" cx="459.7" cy="101" r="4.5"/>
<text transform="matrix(1 0 0 1 467.1778 104.5012)" class="st2 st3">Hovey, Renae</text>
<circle class="st1" cx="459.7" cy="113.5" r="4.5"/>
<text transform="matrix(1 0 0 1 467.1778 116.9819)" class="st2 st3">Johnston, Emma</text>
<circle class="st1" cx="459.7" cy="126" r="4.5"/>
<text transform="matrix(1 0 0 1 467.1778 129.4626)" class="st2 st3">Matthews, Jennifer</text>
<circle class="st1" cx="459.7" cy="141.7" r="7.7"/>
<text transform="matrix(1 0 0 1 470.4517 145.2053)" class="st2 st3">McCulloch, Malcolm</text>
<circle class="st1" cx="459.7" cy="157.4" r="4.5"/>
<text transform="matrix(1 0 0 1 467.1778 160.9479)" class="st2 st3">Pandolfi, John</text>
<circle class="st1" cx="459.7" cy="169.9" r="4.5"/>
<text transform="matrix(1 0 0 1 467.1778 173.4286)" class="st2 st3">Pratchett, Morgan</text>
<circle class="st1" cx="459.7" cy="182.4" r="4.5"/>
<text transform="matrix(1 0 0 1 467.1778 185.9094)" class="st2 st3">Santos, Isaac</text>
<circle class="st1" cx="459.7" cy="194.9" r="4.5"/>
<text transform="matrix(1 0 0 1 467.1778 198.3901)" class="st2 st3">Schoepf, Verena</text>
<circle class="st1" cx="459.7" cy="207.4" r="4.5"/>
<text transform="matrix(1 0 0 1 467.1778 210.8708)" class="st2 st3">Suggett, David</text>
<circle class="st1" cx="459.7" cy="219.9" r="4.5"/>
<text transform="matrix(1 0 0 1 467.1778 223.3516)" class="st2 st3">Wernberg, Thomas</text>
<circle class="st1" cx="459.7" cy="237.8" r="10"/>
<text transform="matrix(1 0 0 1 472.7057 241.34)" class="st2 st3">Ang, Put</text>
<circle class="st1" cx="459.7" cy="255.8" r="4.5"/>
<text transform="matrix(1 0 0 1 467.1778 259.3284)" class="st2 st3">Baker, David</text>
<circle class="st1" cx="459.7" cy="270.2" r="6.3"/>
<text transform="matrix(1 0 0 1 469.0303 273.6548)" class="st2 st3">Chan, Leo</text>
<circle class="st1" cx="459.7" cy="284.5" r="4.5"/>
<text transform="matrix(1 0 0 1 467.1778 287.9812)" class="st2 st3">Qian, Pei-Yuan</text>
<circle class="st1" cx="459.7" cy="298.8" r="6.3"/>
<text transform="matrix(1 0 0 1 469.0303 302.3076)" class="st2 st3">Qiu, Jian-Wen</text>
<circle class="st1" cx="459.7" cy="313.1" r="4.5"/>
<text transform="matrix(1 0 0 1 467.1778 316.634)" class="st2 st3">Barshis, Daniel</text>
<circle class="st1" cx="459.7" cy="325.6" r="4.5"/>
<text transform="matrix(1 0 0 1 467.1778 329.1147)" class="st2 st3">Castillo, Karl</text>
<circle class="st1" cx="459.7" cy="339.9" r="6.3"/>
<text transform="matrix(1 0 0 1 469.0303 343.4412)" class="st2 st3">Davies, Sarah</text>
<circle class="st1" cx="459.7" cy="354.3" r="4.5"/>
<text transform="matrix(1 0 0 1 467.1778 357.7676)" class="st2 st3">Enochs, Ian</text>
<circle class="st1" cx="459.7" cy="366.7" r="4.5"/>
<text transform="matrix(1 0 0 1 467.1778 370.2483)" class="st2 st3">Gilliam, David</text>
<circle class="st1" cx="459.7" cy="379.2" r="4.5"/>
<text transform="matrix(1 0 0 1 467.1778 382.729)" class="st2 st3">Hay, Mark</text>
<circle class="st1" cx="459.7" cy="391.7" r="4.5"/>
<text transform="matrix(1 0 0 1 467.1778 395.2097)" class="st2 st3">McCorkle, Daniel</text>
<circle class="st1" cx="459.7" cy="404.2" r="4.5"/>
<text transform="matrix(1 0 0 1 467.1778 407.6904)" class="st2 st3">Muthiga, Nyawira</text>
<circle class="st1" cx="459.7" cy="416.7" r="4.5"/>
<text transform="matrix(1 0 0 1 467.1778 420.1712)" class="st2 st3">Padilla-Gamiño, Jacqueline</text>
<circle class="st1" cx="459.7" cy="429.2" r="4.5"/>
<text transform="matrix(1 0 0 1 467.1778 432.6519)" class="st2 st3">Roberson, Loretta</text>
<circle class="st1" cx="459.7" cy="441.6" r="4.5"/>
<text transform="matrix(1 0 0 1 467.1778 445.1326)" class="st2 st3">Rotjan, Randi</text>
<circle class="st1" cx="459.7" cy="454.1" r="4.5"/>
<text transform="matrix(1 0 0 1 467.1778 457.6133)" class="st2 st3">Thornhill, Daniel</text>
<circle class="st1" cx="459.7" cy="466.6" r="4.5"/>
<text transform="matrix(1 0 0 1 467.1778 470.0941)" class="st2 st3">Voss, Joshua</text>
<circle class="st1" cx="459.7" cy="479.1" r="4.5"/>
<text transform="matrix(1 0 0 1 467.1778 482.5748)" class="st2 st3">Bates, Amanda</text>
<circle class="st1" cx="459.7" cy="491.6" r="4.5"/>
<text transform="matrix(1 0 0 1 467.1778 495.0555)" class="st2 st3">Bauman, Andrew</text>
<circle class="st1" cx="459.7" cy="505.9" r="6.3"/>
<text transform="matrix(1 0 0 1 469.0303 509.3819)" class="st2 st3">Beger, Maria</text>
<circle class="st1" cx="459.7" cy="520.2" r="4.5"/>
<text transform="matrix(1 0 0 1 467.1778 523.7083)" class="st2 st3">Cerrano, Carlo</text>
<circle class="st1" cx="459.7" cy="534.5" r="6.3"/>
<text transform="matrix(1 0 0 1 469.0303 538.0347)" class="st2 st3">Goffredo, Stefano</text>
<circle class="st1" cx="459.7" cy="548.9" r="4.5"/>
<text transform="matrix(1 0 0 1 467.1778 552.3611)" class="st2 st3">Montagna, Paolo</text>
<circle class="st1" cx="459.7" cy="561.3" r="4.5"/>
<text transform="matrix(1 0 0 1 467.1778 564.8418)" class="st2 st3">Peirano Andrea</text>
<circle class="st1" cx="459.7" cy="577.1" r="7.7"/>
<text transform="matrix(1 0 0 1 470.4517 580.5845)" class="st2 st3">Chen, Chaolun Allen</text>
<circle class="st1" cx="459.7" cy="592.8" r="4.5"/>
<text transform="matrix(1 0 0 1 467.1778 596.3271)" class="st2 st3">Chen, Xiaoyan</text>
<circle class="st1" cx="459.7" cy="605.3" r="4.5"/>
<text transform="matrix(1 0 0 1 467.1778 608.8079)" class="st2 st3">Jiang, Leilei</text>
<circle class="st1" cx="459.7" cy="617.8" r="4.5"/>
<text transform="matrix(1 0 0 1 467.1778 621.2886)" class="st2 st3">Li, Shu</text>
<circle class="st1" cx="459.7" cy="630.3" r="4.5"/>
<text transform="matrix(1 0 0 1 467.1778 633.7693)" class="st2 st3">Qin, Zhenjun</text>
<circle class="st1" cx="459.7" cy="642.8" r="4.5"/>
<text transform="matrix(1 0 0 1 467.1778 646.25)" class="st2 st3">Wang, Guanghua</text>
<circle class="st1" cx="459.7" cy="655.2" r="4.5"/>
<text transform="matrix(1 0 0 1 467.1778 658.7308)" class="st2 st3">Xia, Xiaomin</text>
<circle class="st1" cx="459.7" cy="669.6" r="6.3"/>
<text transform="matrix(1 0 0 1 469.0303 673.0571)" class="st2 st3">Clemente, Sabrina</text>
<circle class="st1" cx="459.7" cy="683.9" r="4.5"/>
<text transform="matrix(1 0 0 1 467.1778 687.3835)" class="st2 st3">Garrabou, Joaquim</text>
<circle class="st1" cx="459.7" cy="696.4" r="4.5"/>
<text transform="matrix(1 0 0 1 467.1778 699.8643)" class="st2 st3">Linares, Cristoma</text>
<circle class="st1" cx="459.7" cy="708.8" r="4.5"/>
<text transform="matrix(1 0 0 1 467.1778 712.345)" class="st2 st3">Coutinho, Ricardo</text>
<circle class="st1" cx="459.7" cy="721.3" r="4.5"/>
<text transform="matrix(1 0 0 1 467.1778 724.8257)" class="st2 st3">Flores, Augusto</text>
<circle class="st1" cx="459.7" cy="733.8" r="4.5"/>
<text transform="matrix(1 0 0 1 467.1778 737.3065)" class="st2 st3">Longo, Guilherme Ortigara</text>
<circle class="st1" cx="459.7" cy="746.3" r="4.5"/>
<text transform="matrix(1 0 0 1 467.1778 749.7872)" class="st2 st3">Mies, Miguel</text>
<circle class="st1" cx="459.7" cy="758.8" r="4.5"/>
<text transform="matrix(1 0 0 1 467.1778 762.2679)" class="st2 st3">Soares, Marcelo</text>
<circle class="st1" cx="459.7" cy="774.5" r="7.7"/>
<text transform="matrix(1 0 0 1 470.4517 778.0106)" class="st2 st3">Davy, Simon</text>
<circle class="st1" cx="459.7" cy="792.1" r="6.3"/>
<text transform="matrix(1 0 0 1 469.0303 795.5988)" class="st2 st3">Ferrier-Pages, Christine</text>
<circle class="st1" cx="459.7" cy="806.4" r="4.5"/>
<text transform="matrix(1 0 0 1 467.1778 809.9252)" class="st2 st3">Garrabou, Joaquim</text>
<circle class="st1" cx="459.7" cy="818.9" r="4.5"/>
<text transform="matrix(1 0 0 1 467.1778 822.4059)" class="st2 st3">Glassom, David</text>
<circle class="st1" cx="459.7" cy="831.4" r="4.5"/>
<text transform="matrix(1 0 0 1 467.1778 834.8867)" class="st2 st3">Schleyer, Michael</text>
<circle class="st1" cx="459.7" cy="843.9" r="4.5"/>
<text transform="matrix(1 0 0 1 467.1778 847.3674)" class="st2 st3">Hall-Spencer, Jason</text>
<circle class="st1" cx="459.7" cy="856.3" r="4.5"/>
<text transform="matrix(1 0 0 1 467.1778 859.8481)" class="st2 st3">Kurihara, Haruko</text>
<circle class="st1" cx="459.7" cy="868.8" r="4.5"/>
<text transform="matrix(1 0 0 1 467.1778 872.3289)" class="st2 st3">Nomura, Keiichi</text>
<circle class="st1" cx="459.7" cy="881.3" r="4.5"/>
<text transform="matrix(1 0 0 1 467.1778 884.8096)" class="st2 st3">Parkinson, Hogn Everett</text>
<circle class="st1" cx="459.7" cy="893.8" r="4.5"/>
<text transform="matrix(1 0 0 1 467.1778 897.2903)" class="st2 st3">Yasuda, Nina</text>
<circle class="st1" cx="459.7" cy="906.3" r="4.5"/>
<text transform="matrix(1 0 0 1 467.1778 909.7711)" class="st2 st3">Yuyama, Ikuko</text>
<circle class="st1" cx="459.7" cy="918.8" r="4.5"/>
<text transform="matrix(1 0 0 1 467.1778 922.2518)" class="st2 st3">Ingole, Baban</text>
<circle class="st1" cx="459.7" cy="931.2" r="4.5"/>
<text transform="matrix(1 0 0 1 467.1778 934.7325)" class="st2 st3">Negaresta, Hossein</text>
<circle class="st1" cx="459.7" cy="943.7" r="4.5"/>
<text transform="matrix(1 0 0 1 467.1778 947.2132)" class="st2 st3">Popijač, Aleksandar</text>
<circle class="st1" cx="459.7" cy="956.2" r="4.5"/>
<text transform="matrix(1 0 0 1 467.1778 959.6939)" class="st2 st3">Rodic, Petra</text>
<circle class="st1" cx="459.7" cy="968.7" r="4.5"/>
<text transform="matrix(1 0 0 1 467.1778 972.1747)" class="st2 st3">Rosa, Rui</text>
<circle class="st1" cx="459.7" cy="981.2" r="4.5"/>
<text transform="matrix(1 0 0 1 467.1778 984.6554)" class="st2 st3">Saeedi, Hanieh</text>
</svg>
